<?xml version="1.0" standalone="no"?>
<!DOCTYPE svg PUBLIC "-//W3C//DTD SVG 1.1//EN" "http://www.w3.org/Graphics/SVG/1.1/DTD/svg11.dtd" >
<svg xmlns="http://www.w3.org/2000/svg" xmlns:xlink="http://www.w3.org/1999/xlink" version="1.1" viewBox="-10 0 598 1000">
   <path fill="currentColor"
d="M39 398h300h100c6 0 10 -1 16 0c9 1 13 1 22 4c10 3 17 5 26 10c7 4 11 8 16 14c13.9922 15.7412 20 25.1865 20 52c0.946289 85.168 25.7373 203.863 -12 268c-40.0752 68.1113 -190.546 75.79 -218 -16c-4.17188 -13.9492 -7.20703 -21.9863 -8 -36
c-3 -53 7 -64 6 -117c-86.4512 1.66211 -176.389 0.415039 -264 0v-60h319c8.22656 0 2 97.8838 2 118c0 61.5459 0.446289 80.0449 65 92c47.0898 8.7207 60 -39.0234 60 -84c0 -27.5625 -0.243164 -55.1348 -2 -85c-1 -17 -1.61426 -29.0723 -5 -46
c-3 -15 -6.24609 -26.4951 -15 -39c-12.6465 -18.0664 -22.4707 -15 -54 -15h-374v-60z" />
</svg>
