<?xml version="1.0" standalone="no"?>
<!DOCTYPE svg PUBLIC "-//W3C//DTD SVG 1.1//EN" "http://www.w3.org/Graphics/SVG/1.1/DTD/svg11.dtd" >
<svg xmlns="http://www.w3.org/2000/svg" xmlns:xlink="http://www.w3.org/1999/xlink" version="1.1" viewBox="-10 0 524 1000">
   <path fill="currentColor"
d="M402 276l-164 -18l110 104c105.167 -13.082 56 0 54 -86zM398 418c-190 46 -328.867 100.754 -239.227 248c54.1494 88.9473 131.771 101.147 182.227 42.7871c52.1475 -60.3164 68.1904 -190.076 57 -290.787zM297 400l-264 -200h438v84v82v104
c-1.8125 103.638 3.25879 209.645 -34 274c-19.8574 32.6299 -59.2617 56 -112 56c-107.405 -0.777344 -153.562 -24.3965 -211.805 -70c-213.713 -167.339 13.8047 -358 183.805 -330z" />
</svg>
