<?xml version="1.0" standalone="no"?>
<!DOCTYPE svg PUBLIC "-//W3C//DTD SVG 1.1//EN" "http://www.w3.org/Graphics/SVG/1.1/DTD/svg11.dtd" >
<svg xmlns="http://www.w3.org/2000/svg" xmlns:xlink="http://www.w3.org/1999/xlink" version="1.1" viewBox="-10 0 729 1000">
   <path fill="currentColor"
d="M70 552c-1.55078 45.584 15.8301 75.458 26 108c178.247 196.118 604.571 51.8398 548 -127l-32 19l-36 24l-36 20c-124.302 69.0566 -303.179 76.3574 -406 0l-34 -20zM84 502l12 20c57 58 214.867 89.2832 324 62l38 -10c64.5293 -25.4941 117.074 -49.71 166 -88
c-15.0469 -32.9375 -36.5059 -46 -86 -46h-366c-42.4824 -3.15039 -81.3086 25.1973 -88 62zM214 400c138.589 7.58789 338.427 -31.377 420 40c51.0781 63.624 62.2754 117.429 38 218c-45.4834 95.0146 -82.2949 151.365 -228 142
c-87.5156 -5.625 -233.891 10.2637 -296 -14c-81.1592 -18.4639 -119.254 -110.167 -128 -202c-2.20508 -41.708 8.35254 -71.7139 20 -100c26.373 -53.5879 94.4082 -84 174 -84z" />
</svg>
