<?xml version="1.0" standalone="no"?>
<!DOCTYPE svg PUBLIC "-//W3C//DTD SVG 1.1//EN" "http://www.w3.org/Graphics/SVG/1.1/DTD/svg11.dtd" >
<svg xmlns="http://www.w3.org/2000/svg" xmlns:xlink="http://www.w3.org/1999/xlink" version="1.1" viewBox="-10 0 562 1000">
   <path fill="currentColor"
d="M139 368c-161.79 533.264 436.251 329.793 156 104l-40 -34l-10 -16c155.96 -109.172 -1.18066 -270.627 -106 -54zM307 412c38.502 81.9883 202 -14 216 182v68v86v52v100h-70v-166l-2 -32v-36v-40c-4.98047 -58.8135 -9.50879 -85.1348 -38 -116
c-13.7998 -11.0508 -84 -19 -38 2c173.339 41.915 -49.0898 425.759 -224 238c-65.5176 -69.8037 -104 -119.623 -104 -262v12c1.71582 -63.9883 13.1709 -115.281 32 -160c30.7393 -77.165 74 -135 158 -140c121.155 -13.1572 187.637 76.9746 114 164
c-13.8008 16.7598 -31.998 29.998 -44 48z" />
</svg>
