<?xml version="1.0" standalone="no"?>
<!DOCTYPE svg PUBLIC "-//W3C//DTD SVG 1.1//EN" "http://www.w3.org/Graphics/SVG/1.1/DTD/svg11.dtd" >
<svg xmlns="http://www.w3.org/2000/svg" xmlns:xlink="http://www.w3.org/1999/xlink" version="1.1" viewBox="-10 0 590 1000">
   <path fill="currentColor"
d="M270 428.831c-91.4785 14.3037 -151.027 62.3115 -151.027 159.922c0 12.5811 0.989258 25.9854 3.02637 40.248c26.3955 102.438 80.4834 141.266 137.117 141.266c90.918 0 188.397 -100.067 188.397 -197.661c0 -50.7012 -26.3086 -100.734 -93.5137 -135.723
c-16.2822 -8.47656 -30.0332 -11.7617 -46.5137 -11.7617c-10.8223 0 -22.8213 1.41699 -37.4863 3.70996zM102.354 214.002c-4.22266 6.59277 -6.07617 14.4619 -6.07617 23.1201c0 47.1367 54.9385 117.583 81.7207 131.876
c98.8154 -9.90234 133.286 -12.6797 160.726 -12.6797c19.668 0 35.7236 1.42676 69.2734 2.67969c22.5996 -18.4365 65.3232 -89.4785 65.3232 -128.064c0 -8.54395 -2.09473 -15.4971 -6.9668 -19.9346h56c9.90918 20.4932 14.3223 39.668 14.3223 57.4443
c0 61.1582 -52.2432 105.763 -112.678 130.557c60.5078 79.0732 88.501 155.076 88.501 219.432c0 109.365 -80.8418 185.094 -220.332 185.094c-17.1807 0 -35.251 -1.14844 -54.1689 -3.52441c-95.54 -12 -137.438 -15.6738 -165.593 -127
c-10.0547 -39.7549 -14.4141 -72.8799 -14.4141 -100.938c0 -96.2803 51.3271 -132.907 100.006 -173.062c-6.72559 0.645508 -13.0674 0.959961 -19.0459 0.959961c-81.9111 0 -95.6895 -59.0381 -95.6895 -135.483c0 -14.3066 0.482422 -29.2227 1.0918 -44.4756z" />
</svg>
