<?xml version="1.0" standalone="no"?>
<!DOCTYPE svg PUBLIC "-//W3C//DTD SVG 1.1//EN" "http://www.w3.org/Graphics/SVG/1.1/DTD/svg11.dtd" >
<svg xmlns="http://www.w3.org/2000/svg" xmlns:xlink="http://www.w3.org/1999/xlink" version="1.1" viewBox="-10 0 928 1000">
   <path fill="currentColor"
d="M477.159 608.601c25.5576 53.043 -0.078125 70.0234 -21.1992 103.399c-250.965 41.1221 -100.313 -254.13 21.1992 -103.399zM313.92 12.4004c527.727 75.6885 684.206 833.8 63.5996 833.8c-99.5518 -0.825195 -214.666 14.5 -256.52 -46.2002
c-51.0928 -112.565 83.2734 -222.288 129.319 -286l36.04 70.4004c-47.3076 57.3477 -122.473 141.018 -6.35938 176c353.484 24.7891 571.877 -299.725 313.76 -521.4c-105.663 -73.8701 -445.317 -292.602 -462.16 22l-91.1602 4.40039
c-9.2666 -40.25 -21.0908 -77.8457 -16.96 -132c16.4014 -135.63 143.467 -142.788 290.44 -121z" />
</svg>
