<?xml version="1.0" standalone="no"?>
<!DOCTYPE svg PUBLIC "-//W3C//DTD SVG 1.1//EN" "http://www.w3.org/Graphics/SVG/1.1/DTD/svg11.dtd" >
<svg xmlns="http://www.w3.org/2000/svg" xmlns:xlink="http://www.w3.org/1999/xlink" version="1.1" viewBox="-10 0 870 1000">
   <path fill="currentColor"
d="M829.376 221.507c0 0 -42.7686 -29.9209 -76.0322 -41.4287c-26.1357 -9.20605 -41.5801 -8.05566 -68.9033 -9.20605c-12.6123 -0.421875 -23.1543 -0.689453 -33.1416 -0.689453c-17.2969 0 -32.9307 0.801758 -54.7715 2.99121
c-29.6992 3.45215 -47.5195 3.45215 -76.0312 13.8086c-26.1357 9.20703 -41.5801 16.1113 -61.7764 34.5244c-21.3838 18.4131 -26.1357 34.5244 -42.7676 57.54c-11.8799 17.2627 -17.8193 27.6191 -28.5117 46.0322c-13.0684 21.8643 -19.0078 34.5234 -30.8877 57.54
c-16.6328 31.0713 -26.1367 49.4844 -42.7686 80.5557c-10.6914 18.4121 -15.4443 29.9209 -26.1367 48.333l23.7598 -6.9043l40.3926 -18.4121l-87.9121 131.19l-78.4072 -147.302l73.6553 41.4277c3.56445 -20.7139 3.56445 -33.3721 9.50391 -52.9355
c7.12793 -24.168 15.4443 -36.8262 26.1367 -59.8418c7.12793 -16.1113 13.0674 -24.167 21.3838 -39.1279c13.0674 -21.8652 20.1963 -33.3721 33.2637 -55.2383c14.2559 -24.167 21.3838 -39.127 38.0166 -62.1436c16.6318 -21.8643 24.9473 -35.6738 47.5195 -52.9365
c24.9473 -19.5635 41.5801 -28.7695 71.2803 -41.4287c20.1963 -9.20605 33.2637 -10.3574 54.6475 -13.8096c22.5723 -3.45215 34.4521 -3.45215 57.0244 -4.60352c23.7598 -1.15039 38.0156 -2.30176 61.7754 -2.30176c20.1963 0 32.0762 1.15137 52.2725 4.60352
c20.1963 3.45312 32.0762 4.60352 49.8965 11.5088c11.8799 4.60254 19.0078 10.3574 28.5107 18.4121c8.31641 8.05566 11.8809 13.8096 19.0088 23.0156v36.8262zM39 436c0 -47.7383 5.69434 -92.9209 17.1719 -134.002c1.41406 -5.0625 5.4043 -6.45117 10.3945 -6.45117
c6.06641 0 13.6094 2.05273 19.7998 2.05273c4.79395 0 8.77637 -1.23145 10.6318 -5.60059c0 0 -0.179688 5.18848 -0.179688 14.4707c0 77.624 12.582 441.546 248.181 451.529c2.46387 0.104492 4.90234 0.15625 7.31641 0.15625
c228.81 0 234.685 -464.156 234.685 -464.156c1.56543 3.54785 4.74121 4.70801 8.68652 4.70801c7.45215 0 17.6494 -4.13965 24.9141 -4.13965c4.09668 0 7.26074 1.31641 8.47461 5.43262c11.9043 40.3535 17.9248 84.8135 17.9248 132c0 198 -106 368 -308 368
s-300 -166 -300 -364z" />
</svg>
