<?xml version="1.0" standalone="no"?>
<!DOCTYPE svg PUBLIC "-//W3C//DTD SVG 1.1//EN" "http://www.w3.org/Graphics/SVG/1.1/DTD/svg11.dtd" >
<svg xmlns="http://www.w3.org/2000/svg" xmlns:xlink="http://www.w3.org/1999/xlink" version="1.1" viewBox="-10 0 747 1000">
   <path fill="currentColor"
d="M156.554 582c3.10352 19 6.78516 28 12.1475 46c4.87695 16 6.55762 25 13.6934 40c20.5801 43.2656 52.9648 87.0107 110.233 100c57.1172 12.7139 130.943 3.25488 170.245 -32c69.8398 -60.9131 135.671 -147.767 110.354 -242
c-22.8135 -84.918 -41.0254 -125.058 -126.381 -146c-12.2275 -3 -24.835 11 -35.5459 6c-19.5859 -9.14258 -2.25781 1 -16.3936 -14c-39.7959 -105.087 -263.051 102.565 -238.354 242zM417.092 316c16.1162 -25.4746 29.0869 -50.625 46.5518 -72
c33.5908 -34.1045 39.791 -56.9072 82.7227 -78c55.334 -27.1855 84.1416 -45.3916 138.002 -76c43.3477 -19.2002 61.6338 47.0254 15.6318 66c-63.4502 32.1768 -110.767 26.2979 -169.548 64c-25.3438 14.3555 -20.3076 21.9814 -41.4473 42
c-14.3887 17.4375 -28.8477 34.7803 -33.0049 66c42.9004 -30.6328 84.7344 -40.3594 123.546 -6c17.9561 21.7676 32.4404 46.2969 45.4482 72c14.9512 36.5557 16.1201 72.7402 5.98828 132c-31.1943 134.838 -77.6934 176.408 -162.809 236
c-24.5879 14.1143 -59.0166 33.3096 -92.7607 34h-50c-108.578 0 -170.141 -85.1074 -186.773 -160c-11.1924 -37.5723 -17.5381 -76.8164 -13.0195 -128c2.38867 -36.7715 12.7666 -71.4082 30.7969 -104c19.458 -34.8564 40.667 -67.3545 70.6748 -88
c50.9346 -41.9502 181.559 -99.6709 190 0zM45 800v-782h46v782h-46z" />
</svg>
