<?xml version="1.0" standalone="no"?>
<!DOCTYPE svg PUBLIC "-//W3C//DTD SVG 1.1//EN" "http://www.w3.org/Graphics/SVG/1.1/DTD/svg11.dtd" >
<svg xmlns="http://www.w3.org/2000/svg" xmlns:xlink="http://www.w3.org/1999/xlink" version="1.1" viewBox="-10 0 586 1000">
   <path fill="currentColor"
d="M232 480c-129.916 -17.4854 -167.919 90.7812 -131.327 208c5.24609 16.8057 6.32715 18 25.3271 29.042c38.4443 22.3428 123.445 12.2314 144 -24.042c32.0781 -31.4746 12.2295 -206.239 -38 -213zM508 300l-312 -51l89 151c57.6611 5.59863 196.746 2.65723 218 0
l37 79c-58.127 5.79199 -210.006 -22.0391 -194 1c66 95 28.1172 311.02 -162 320c-21.998 1.03906 -35 -4 -56 -10c-14 -4 -22 -8 -34 -16c-15 -10 -24 -15 -34 -30c-12 -18 -16 -31 -22 -52c-7 -26 -8 -41 -10 -68c-2 -21 -2 -33 0 -54c1 -17 4 -26 8 -42
c4 -14 6 -22 12 -36c5 -12 8 -19 16 -30c25.6885 -33.3955 89.4805 -58.6846 137 -62l-89 -201h396v101z" />
</svg>
