<?xml version="1.0" standalone="no"?>
<!DOCTYPE svg PUBLIC "-//W3C//DTD SVG 1.1//EN" "http://www.w3.org/Graphics/SVG/1.1/DTD/svg11.dtd" >
<svg xmlns="http://www.w3.org/2000/svg" xmlns:xlink="http://www.w3.org/1999/xlink" version="1.1" viewBox="-33 0 519 1000">
   <path fill="currentColor"
d="M127 580c55.8887 -71.8564 183.248 -195.431 195.882 -294c4.4541 -34.75 -7.80176 -33.3203 -35.8818 -38h-56c-53.9512 -3.95117 -74.7061 21.2939 -98 48c-18.9668 26.3672 -29.7529 60.9141 -32 104c-5.24414 73.9102 15.4346 121.898 26 180zM163 654l18 26l24 28
c41.5449 32.8809 90.9727 42.7031 142 14l20 -46l16 -44c7.97949 -30.6875 17.0273 -60.3057 16 -100c-5.43652 -55.7451 -41.8291 -67.959 -92 -80zM317 426l12 -10c73.125 -56.0615 108.508 17.7422 121.909 94c10.0928 57.4336 -3.98145 107.459 -22.3223 152
c-23.0029 55.8643 -55.5137 85.9434 -99.5869 120c-68.1494 31.6045 -126.516 5.29102 -166 -32l-36 -38l-90 190l-60 -46l102 -216l-26 -60c-27.751 -109.067 -12.7939 -256.941 36 -322c17.6396 -24.7783 44.5371 -36.7637 76 -48
c18.8301 -5.83691 37.2812 -6.25781 62 -8c260.145 -18.3369 171.138 67.4395 90 224z" />
</svg>
