<?xml version="1.0" standalone="no"?>
<!DOCTYPE svg PUBLIC "-//W3C//DTD SVG 1.1//EN" "http://www.w3.org/Graphics/SVG/1.1/DTD/svg11.dtd" >
<svg xmlns="http://www.w3.org/2000/svg" xmlns:xlink="http://www.w3.org/1999/xlink" version="1.1" viewBox="-10 0 790 1000">
   <path fill="currentColor"
d="M67 524c31.8994 105.816 101.13 184.646 205 221c52.2871 9.64258 118.677 12.1396 175 11c117.909 -2.38574 231.644 -108.681 250 -228c-66.9463 77.8818 -166.177 124.005 -310 128c-163.641 7.00195 -215 -79 -320 -132zM25 400c75.624 75.624 126 162 244 186
c243.687 63.4424 383.504 -60.71 490 -186c-10.6875 67.9795 -18.9531 138.38 -42 194c-106.165 185.321 -424.079 311.251 -619 83.1865c-13.1504 -15.3867 -22.2412 -37.1016 -30.2129 -56.1865c-25.6846 -61.4873 -38.0654 -124.999 -42.7871 -221z" />
</svg>
