<?xml version="1.0" standalone="no"?>
<!DOCTYPE svg PUBLIC "-//W3C//DTD SVG 1.1//EN" "http://www.w3.org/Graphics/SVG/1.1/DTD/svg11.dtd" >
<svg xmlns="http://www.w3.org/2000/svg" xmlns:xlink="http://www.w3.org/1999/xlink" version="1.1" viewBox="-10 0 770 1000">
   <path fill="currentColor"
d="M35 800c8 -133 3 -264 16 -382c5 -39 13 -77 26 -108l40 -50l18 -20c14 -18 28 -36 56 -40h28c25 -2 33 13 40 30c20 58 29 125 36 202v74v80c-3 53 9 146 56 144c125 -6 54 -356 96 -470c12 -106 189 -47 288 -66v66h-212l-4 14c-27 146 -8 357 -68 470
c-16 25 -25 56 -66 56c-24 3 -39 -4 -52 -12c-32 -11 -44 -42 -58 -72c-36 -79 -24 -394 -92 -442c-33 -10 -39 10 -44 32c-4 51 -13 95 -18 146c-8 110 -20 230 -32 348h-54z" />
</svg>
