<?xml version="1.0" standalone="no"?>
<!DOCTYPE svg PUBLIC "-//W3C//DTD SVG 1.1//EN" "http://www.w3.org/Graphics/SVG/1.1/DTD/svg11.dtd" >
<svg xmlns="http://www.w3.org/2000/svg" xmlns:xlink="http://www.w3.org/1999/xlink" version="1.1" viewBox="-10 0 762 1000">
   <path fill="currentColor"
d="M616 198c0 -21 13 -38 30 -38s30 17 30 38s-13 38 -30 38s-30 -17 -30 -38zM408 440l-44 44c-6.14551 -106.883 -320.816 -36.4189 -286 154c9.05762 82.2305 29.209 112.629 118 118c246.696 14.9229 312.229 -483.597 380 -656l134 700h-68l-74 -552l-151.687 466
c-12.8779 39.5615 -58.1895 73.0928 -176.313 86c-297.711 32.5312 -314.139 -402.858 -4 -400c55.5742 0.511719 155.164 2.33496 172 40z" />
</svg>
