<?xml version="1.0" standalone="no"?>
<!DOCTYPE svg PUBLIC "-//W3C//DTD SVG 1.1//EN" "http://www.w3.org/Graphics/SVG/1.1/DTD/svg11.dtd" >
<svg xmlns="http://www.w3.org/2000/svg" xmlns:xlink="http://www.w3.org/1999/xlink" version="1.1" viewBox="-10 0 724 1000">
   <path fill="currentColor"
d="M596.953 777.294v-465.466l-207.953 204.172zM108.462 771.71l174.538 -253.71l-172.37 -193.694c-1.23242 83.4658 -4.96777 358.146 -2.16797 447.404zM635 300c0 0 -8 500 0 500h-22h-18h-60l-174 -227.814v227.814h-36v-230.644l-158 230.644h-56h-22h-16v-500h16h22
c28.7646 0 270.57 5.82812 406 1.39355c36.123 -1.18262 57.3438 -2.33008 92 -1.39355h26zM513.94 318.84h-152.94v151.348zM325 321.44h-143.089l143.089 148.168v-148.168z" />
</svg>
