<?xml version="1.0" standalone="no"?>
<!DOCTYPE svg PUBLIC "-//W3C//DTD SVG 1.1//EN" "http://www.w3.org/Graphics/SVG/1.1/DTD/svg11.dtd" >
<svg xmlns="http://www.w3.org/2000/svg" xmlns:xlink="http://www.w3.org/1999/xlink" version="1.1" viewBox="-10 0 842 1000">
   <path fill="currentColor"
d="M262 599l-34.459 -13.21c-6.67285 -9.54102 -11.1084 -14.6533 -16.3291 -24.9883c-4.86816 -11.4668 -8.24512 -19.9824 -9.11035 -32.6934c-0.248047 -3.64453 -0.360352 -7.01953 -0.360352 -10.2363c0 -13.6133 2.00879 -24.3984 4.19629 -40.8262
c2.70312 -20.3096 5.13281 -31.9961 11.1338 -51.2812c7.05762 -22.6865 12.3926 -35.9561 20.5498 -58.3018c7.80566 -21.2109 11.335 -32.5537 21.3379 -53.082c9.64844 -19.3926 14.6309 -31.5273 29.4199 -48.0771c20.9121 -24.5986 34.6445 -37.7451 60.7354 -55.7539
c23.1895 -16.4238 38.8457 -20.2617 64.6641 -29.6465c26.9189 -9.04395 43.3213 -11.4062 70.6318 -17.8389c24.7607 -5.98047 37.8672 -9.36914 62.627 -15.3506c16.7568 -3.49609 26.2119 -6.77441 43.7139 -8.79395c24.0947 -3.23047 38.4658 -7.20215 61.7783 -7.20215
c1.02441 0 2.06641 0.0078125 3.12695 0.0234375c20.4453 0.140625 32.5312 3.90137 53.3691 6.65234l-17.6758 -82.6377l117.357 118.629l-151.385 44.9678l29.5801 -33.0986l13.6523 -20.6357c-20.7578 4.73926 -33.1592 5.8584 -53.916 10.5967
c-34.6094 6.65137 -55.0146 10.2559 -89.625 16.9062c-25.5059 4.50488 -39.3584 6.41504 -64.1182 12.3975c-20.7588 4.74023 -32.4111 7.33496 -52.4238 13.5488c-26.918 9.04395 -43.7139 8.79492 -67.6484 23.7432c-23.582 13.8135 -34.7627 26.5088 -51.3193 48.7295
c-18.3584 24.1475 -23.6533 41.1641 -35.7725 68.4961c-13.5322 31.8721 -19.1797 50.0195 -28.3164 83.2598c-6.46484 24.3457 -11.7998 38.4893 -11.7998 62.21c0 2.03125 0.0390625 4.13281 0.120117 6.31738c1.10645 35.1807 16.2646 87.1768 16.2646 87.1768z
M30.999 436c0 -47.7383 5.69531 -92.9209 17.1729 -134.002c1.41406 -5.0625 5.4043 -6.45117 10.3945 -6.45117c6.06641 0 13.6094 2.05273 19.7988 2.05273c4.79395 0 8.77637 -1.23145 10.6318 -5.60059c0 0 -0.179688 5.18848 -0.179688 14.4707
c0 77.624 12.582 441.546 248.181 451.529c2.46387 0.104492 4.90234 0.15625 7.31641 0.15625c228.81 0 234.685 -464.156 234.685 -464.156c1.56543 3.54785 4.74121 4.70801 8.68652 4.70801c7.45215 0 17.6494 -4.13965 24.9141 -4.13965
c4.09668 0 7.26074 1.31641 8.47461 5.43262c11.9043 40.3535 17.9248 84.8135 17.9248 132c0 198 -106 368 -308 368s-300 -166 -300 -364z" />
</svg>
