<?xml version="1.0" standalone="no"?>
<!DOCTYPE svg PUBLIC "-//W3C//DTD SVG 1.1//EN" "http://www.w3.org/Graphics/SVG/1.1/DTD/svg11.dtd" >
<svg xmlns="http://www.w3.org/2000/svg" xmlns:xlink="http://www.w3.org/1999/xlink" version="1.1" viewBox="-10 0 616 1000">
   <path fill="currentColor"
d="M183 562c-10.0732 18.2256 -20.4854 49.5869 -22 76c-1.62793 23.0391 -2.40527 46.9287 -2 72c0.366211 24.9668 -4.625 55.292 14 62c58.7559 5.32422 102.416 -20.416 132 -50l14 -54l10 -50l2 -40v-54v-42c-43.6338 -72.502 -129.795 51.8643 -148 80zM33 340l10 -26
c33.873 -48.8096 65.4658 -114 148 -114c43.1953 -0.72168 71 2 88 28c35.5166 45.3867 46.3057 124.459 78 172h26c54.3545 0 147.211 -9.23438 198 0c-25.5186 38.4814 -48.7617 79.2383 -76 116l-36 -24l-30 -12l-30 -8l-40 -6v44v40v40
c9.92871 145.277 -41.4395 210 -180 210c-155.845 0 -68.1025 -283.365 -28 -336c33.4033 -26.1016 71.2715 -58 130 -58h16l-12 -30c-26.542 -43.29 -53.5732 -108.856 -120 -100c-28.0205 19.2559 -45.4102 38.8945 -62 70l-18 26z" />
</svg>
