<?xml version="1.0" standalone="no"?>
<!DOCTYPE svg PUBLIC "-//W3C//DTD SVG 1.1//EN" "http://www.w3.org/Graphics/SVG/1.1/DTD/svg11.dtd" >
<svg xmlns="http://www.w3.org/2000/svg" xmlns:xlink="http://www.w3.org/1999/xlink" version="1.1" viewBox="-10 0 614 1000">
   <path fill="currentColor"
d="M201 400c4.83691 -34.3936 -12.833 -40.0205 -32 -52c-39.1211 -11.4971 -88 -8.92578 -88 40c18.7471 25.2529 82.0977 5.90234 120 12zM267 460v242h96v-242h-96zM561 200v66h-140v134h100v60h-100v340h-220v-344c-44.4443 -6.24023 -133.178 -0.436523 -160 -16
c-14.0449 -8.14941 -1.65137 -54.1074 2 -76c11.8379 -70.9766 98.3789 -69.9365 170 -58c67.1016 18.0732 44 30 48 94h100v-200h200z" />
</svg>
