<?xml version="1.0" standalone="no"?>
<!DOCTYPE svg PUBLIC "-//W3C//DTD SVG 1.1//EN" "http://www.w3.org/Graphics/SVG/1.1/DTD/svg11.dtd" >
<svg xmlns="http://www.w3.org/2000/svg" xmlns:xlink="http://www.w3.org/1999/xlink" version="1.1" viewBox="-10 0 620 1000">
   <path fill="currentColor"
d="M82 683c-104.112 -115.154 -120 -633 474 -483c0 0 16.416 33.3467 16 40c-126.366 20.8643 -632.952 -16.5605 -448 418c13.4365 31.5703 -60 -188 148 -250c383.854 15.5615 88.9961 531.597 -97 358l17 138h-44l-26 -180c-15 -10 -13.334 -11.5059 -40 -41zM177 672
c-0.101562 13.7305 -2.93359 21.4697 3 29c11.4404 14.5195 65.9561 40 89 40c63 0 125 -40 125 -129s-39 -156 -102 -156s-115 66 -115 155c0 6.42773 -0.101562 12.7734 -0.236328 19h0.236328v42z" />
</svg>
