<?xml version="1.0" standalone="no"?>
<!DOCTYPE svg PUBLIC "-//W3C//DTD SVG 1.1//EN" "http://www.w3.org/Graphics/SVG/1.1/DTD/svg11.dtd" >
<svg xmlns="http://www.w3.org/2000/svg" xmlns:xlink="http://www.w3.org/1999/xlink" version="1.1" viewBox="-10 0 990 1000">
   <path fill="currentColor"
d="M161 436c0 -47.7383 5.69434 -92.9209 17.1719 -134.002c1.41406 -5.0625 5.4043 -6.45117 10.3945 -6.45117c6.06641 0 13.6104 2.05273 19.8008 2.05273c4.79395 0 8.77637 -1.23145 10.6318 -5.60059c0 0 -0.179688 5.18848 -0.179688 14.4707
c0 77.625 12.582 441.546 248.18 451.529c2.46387 0.104492 4.90234 0.15625 7.31641 0.15625c228.81 0 234.685 -464.156 234.685 -464.156c1.56543 3.54785 4.74121 4.70801 8.68555 4.70801c7.45215 0 17.6494 -4.13965 24.9141 -4.13965
c4.09668 0 7.26074 1.31641 8.47461 5.43262c11.9053 40.3535 17.9258 84.8135 17.9258 132c0 198 -106 368 -308 368s-300 -166 -300 -364zM951.374 221.505c0 0 -42.7695 -29.9199 -76.0332 -41.4277c-26.1357 -9.20605 -41.5801 -8.05566 -68.9033 -9.20605
c-12.6123 -0.421875 -23.1543 -0.689453 -33.1416 -0.689453c-17.2969 0 -32.9307 0.801758 -54.7715 2.99121c-29.6992 3.45215 -47.5195 3.45215 -76.0312 13.8086c-26.1357 9.20703 -41.5801 16.1113 -61.7764 34.5244c-21.3838 18.4131 -26.1357 34.5244 -42.7676 57.54
c-11.8799 17.2627 -17.8193 27.6191 -28.5117 46.0322c-0.146484 0.246094 -0.292969 0.491211 -0.438477 0.734375c6.56836 10.8672 12.4795 20.5879 20.7969 34.5049c8.31641 14.9609 14.2559 23.0166 21.3838 39.1279c10.6924 23.0156 19.0088 35.6738 26.1367 59.8418
c5.93945 19.5635 5.93945 32.2217 9.50391 52.9355l73.6553 -41.4277l-78.4072 147.302l-87.9121 -131.19l40.3926 18.4121l23.7598 6.9043c-10.6924 -18.4121 -15.4453 -29.9209 -26.1367 -48.333c-16.6318 -31.0713 -26.1357 -49.4844 -42.7686 -80.5557
c-2.02051 -3.91406 -3.86914 -7.5293 -5.61035 -10.9404c-1.63379 3.2002 -3.36426 6.58301 -5.24414 10.2246c-16.6328 31.0713 -26.1367 49.4844 -42.7686 80.5557c-10.6914 18.4121 -15.4443 29.9209 -26.1367 48.333l23.7598 -6.9043l40.3926 -18.4121l-87.9121 131.19
l-78.4072 -147.302l73.6553 41.4277c3.56445 -20.7139 3.56445 -33.3721 9.50391 -52.9355c7.12793 -24.168 15.4443 -36.8262 26.1367 -59.8418c7.12793 -16.1113 13.0674 -24.167 21.3838 -39.1279c8.13574 -13.6133 13.9697 -23.2109 20.3682 -33.7939
c0 -0.00488281 -0.0078125 -0.00976562 -0.0078125 -0.0146484c-10.6924 -18.4131 -16.6318 -28.7695 -28.5117 -46.0322c-16.6318 -23.0156 -21.3838 -39.127 -42.7676 -57.54c-20.1963 -18.4131 -35.6406 -25.3174 -61.7764 -34.5244
c-28.5117 -10.3564 -46.332 -10.3564 -76.0312 -13.8086c-21.8408 -2.18945 -37.4746 -2.99121 -54.7715 -2.99121c-9.9873 0 -20.5293 0.267578 -33.1416 0.689453c-27.3232 1.15039 -42.7676 0 -68.9033 9.20605c-33.2637 11.5078 -76.0322 41.4287 -76.0322 41.4287
v-36.8262c7.12793 -9.20605 10.6924 -14.96 19.0088 -23.0156c9.50293 -8.05469 16.6309 -13.8096 28.5107 -18.4121c17.8203 -6.90527 29.7002 -8.05566 49.8965 -11.5088c20.1963 -3.45215 32.0762 -4.60352 52.2725 -4.60352c23.7598 0 38.0156 1.15137 61.7754 2.30176
c22.5723 1.15137 34.4521 1.15137 57.0244 4.60352c21.3838 3.45215 34.4512 4.60352 54.6475 13.8096c29.7002 12.6592 46.333 21.8652 71.2803 41.4287c22.5723 17.2627 30.8877 31.0723 47.5195 52.9365c10.96 15.166 17.793 26.834 25.2578 39.9424
c7.625 -13.4014 14.5059 -25.2168 25.6641 -40.6582c16.6318 -21.8643 24.9473 -35.6738 47.5195 -52.9365c24.9473 -19.5635 41.5801 -28.7695 71.2803 -41.4287c20.1963 -9.20605 33.2637 -10.3574 54.6475 -13.8096c22.5723 -3.45215 34.4521 -3.45215 57.0244 -4.60352
c23.7598 -1.15039 38.0156 -2.30176 61.7754 -2.30176c20.1963 0 32.0762 1.15137 52.2725 4.60352c20.1963 3.45312 32.0762 4.60352 49.8965 11.5088c11.8799 4.60254 19.0078 10.3574 28.5107 18.4121c8.31641 8.05566 11.8809 13.8096 19.0088 23.0156v36.8262z" />
</svg>
