<?xml version="1.0" standalone="no"?>
<!DOCTYPE svg PUBLIC "-//W3C//DTD SVG 1.1//EN" "http://www.w3.org/Graphics/SVG/1.1/DTD/svg11.dtd" >
<svg xmlns="http://www.w3.org/2000/svg" xmlns:xlink="http://www.w3.org/1999/xlink" version="1.1" viewBox="-10 0 924 1000">
   <path fill="currentColor"
d="M117 436c0 -47.7383 5.69434 -92.9209 17.1719 -134.002c1.41406 -5.0625 5.4043 -6.45117 10.3945 -6.45117c6.06641 0 13.6094 2.05273 19.7998 2.05273c4.79395 0 8.77637 -1.23145 10.6318 -5.60059c0 0 -0.179688 5.18848 -0.179688 14.4707
c0 77.624 12.582 441.546 248.181 451.529c2.46387 0.104492 4.90234 0.15625 7.31641 0.15625c228.81 0 234.685 -464.156 234.685 -464.156c1.56543 3.54785 4.74121 4.70801 8.68652 4.70801c7.45215 0 17.6494 -4.13965 24.9141 -4.13965
c4.09668 0 7.26074 1.31641 8.47461 5.43262c11.9043 40.3535 17.9248 84.8135 17.9248 132c0 198 -106 368 -308 368s-300 -166 -300 -364zM347.997 598.998l-34.46 -13.2109c-6.67285 -9.54102 -11.1084 -14.6533 -16.3291 -24.9883
c-4.86816 -11.4668 -8.24512 -19.9824 -9.11035 -32.6934c-0.248047 -3.64453 -0.360352 -7.01953 -0.360352 -10.2363c0 -13.6133 2.00879 -24.3984 4.19629 -40.8262c2.70312 -20.3096 5.13281 -31.9961 11.1338 -51.2812
c7.05762 -22.6865 12.3926 -35.9561 20.5498 -58.3018c7.80566 -21.2109 11.335 -32.5537 21.3379 -53.082c9.64844 -19.3926 14.6309 -31.5273 29.4199 -48.0771c12.2412 -14.3994 22.0225 -24.875 33.2627 -34.6982
c-0.744141 -0.571289 -1.50391 -1.14355 -2.2793 -1.71777c-20.6035 -16.2656 -35.2188 -16.2998 -58.502 -26.3613c-17.3184 -6.93945 -27.418 -9.89648 -45.4062 -15.2871c-21.4512 -6.77734 -33.4727 -9.04688 -55.5938 -14.2744
c-30.0107 -7.65918 -47.708 -11.8418 -77.7168 -19.5029c-17.9883 -5.38965 -28.7598 -6.7959 -46.7471 -12.1855l11.5752 22.1133l25.251 35.6025l-131.033 -50.3369l103.81 -123.654l-16.5762 87.2734c17.668 -2.47754 28.1504 -6.11621 45.0742 -6.11621
c0.477539 0 0.959961 0.00292969 1.44727 0.00878906c21.9229 0.0488281 34.5244 4.73633 56.3555 8.75586c15.1953 2.4502 23.373 6.0918 37.8984 10.0938c21.4512 6.77734 32.8027 10.6016 54.2559 17.3779c23.6631 7.30176 37.8965 10.0947 61.1816 20.1562
c22.3232 10.4033 35.8848 14.748 55.8193 32.5664c4.65332 4.05371 8.84668 7.87695 12.7305 11.626c21.0215 -14.0938 36.3145 -18.0137 60.5938 -26.8389c26.9189 -9.04395 43.3213 -11.4062 70.6318 -17.8389c24.7607 -5.98047 37.8672 -9.36914 62.627 -15.3506
c16.7568 -3.49609 26.2119 -6.77441 43.7139 -8.79395c24.0947 -3.23047 38.4658 -7.20215 61.7783 -7.20215c1.02441 0 2.06641 0.0078125 3.12695 0.0234375c20.4453 0.140625 32.5312 3.90137 53.3691 6.65234l-17.6758 -82.6377l117.357 118.629l-151.385 44.9678
l29.5801 -33.0986l13.6523 -20.6357c-20.7578 4.73926 -33.1592 5.8584 -53.916 10.5967c-34.6094 6.65137 -55.0146 10.2559 -89.625 16.9062c-25.5059 4.50488 -39.3584 6.41504 -64.1182 12.3975c-20.7588 4.74023 -32.4111 7.33496 -52.4238 13.5488
c-24.1172 8.10254 -40.1094 8.74609 -60.3896 19.543c3.92871 5.31543 7.97559 11.1162 12.3965 17.6699c12.623 17.8027 16.7812 30.75 24.8926 51.4736c8.4043 21.9355 11.3086 34.0205 17.791 56.6387c6.77148 23.8271 11.2197 37.9863 17.0283 62.1543
c4.94043 20.5469 6.88477 32.9756 8.94043 54.5479c2.05859 21.5723 4.00195 34.001 2.59473 54.1855c-0.935547 13.457 -3.99902 22.4229 -8.39844 34.4883c-4.69238 10.8623 -8.625 16.2041 -14.5684 26.1963l-30.167 13.3916s13.9424 -54.8408 15.416 -92.1074
c1.29199 -29.3301 -3.44434 -44.6982 -9.16504 -72.834c-7.46582 -35.3926 -12.1133 -54.7256 -23.4229 -88.7451c-10.1465 -29.1836 -14.5059 -47.3105 -30.124 -73.2285c-5.13281 -8.69336 -9.66211 -16.0312 -14.3301 -22.5771
c-9.73145 8.69043 -17.6533 18.5117 -27.4619 31.6758c-18.3584 24.1475 -23.6533 41.1641 -35.7725 68.4961c-13.5322 31.8721 -19.1797 50.0195 -28.3164 83.2598c-7.01855 26.4307 -12.7051 40.8369 -11.6797 68.5273c1.10645 35.1807 16.2646 87.1768 16.2646 87.1768z
" />
</svg>
