<?xml version="1.0" standalone="no"?>
<!DOCTYPE svg PUBLIC "-//W3C//DTD SVG 1.1//EN" "http://www.w3.org/Graphics/SVG/1.1/DTD/svg11.dtd" >
<svg xmlns="http://www.w3.org/2000/svg" xmlns:xlink="http://www.w3.org/1999/xlink" version="1.1" viewBox="-10 0 772 1000">
   <path fill="currentColor"
d="M29 800c2.18262 -217.231 -13.5635 -448.437 96 -558c60.7842 -57.4746 304.784 -62.127 390 -12c84.252 34.2041 135.893 114.983 184 186c86.4561 166.736 -6.12988 384 -182 384c-142.72 4.23926 -207.351 -44.9365 -246 -148
c-78.5557 -367.045 416.249 -284.771 252 -16c-34.8525 6.85645 -70.2168 17.4287 -102 2c-34.625 -17.375 -63.6504 -40.3496 -68 -88c15.7979 -30.8691 25.1592 -68.1738 78 -62l32 16l-8 18l-12 20c-19.8965 -3.6377 -39.1396 -4.98926 -56 2l4 18
c2.2168 16.4502 18.3389 18.9941 36 20c47.6123 9.45801 68.0479 10.1475 86 -28c21.2803 -100.425 -87.2744 -130.104 -160 -88c-35.8301 41.2412 -52.25 83.249 -30 150c29.1143 114.84 159.309 135.048 258 84c60.6719 -60.7822 86.8535 -125.099 56 -230
c-71.6025 -153.764 -156.349 -171.044 -356 -196c-151.436 -13.1631 -150.618 169.922 -168 304c-8.64551 66.6875 -1.80859 148.857 -4 222h-80z" />
</svg>
