<?xml version="1.0" standalone="no"?>
<!DOCTYPE svg PUBLIC "-//W3C//DTD SVG 1.1//EN" "http://www.w3.org/Graphics/SVG/1.1/DTD/svg11.dtd" >
<svg xmlns="http://www.w3.org/2000/svg" xmlns:xlink="http://www.w3.org/1999/xlink" version="1.1" viewBox="-10 0 652 1000">
   <path fill="currentColor"
d="M79 398c8 8 10 15 20 20c14 7 23 8 38 10c19 2 30 5 48 0c23 -6 36 -12 56 -26c16 -12 26 -20 34 -38c42.0918 -98.2139 -242.078 -175.054 -196 34zM609 202v69.999h-301.444s0.920898 2.69238 1.44434 4c47.3955 106.641 -58.2969 198.643 -162 190.001
c-17 -1 -27 -3 -44 -8c-9 -3 -19 -2 -22 -12c-0.396484 -1.23926 -0.761719 -2.45703 -1.09668 -3.6543v357.654h-48.9033c-3.74219 -156.833 -1.91797 -319.233 -1.72559 -480c0.126953 -106.838 77.7295 -120.092 99.7256 -120z" />
</svg>
