<?xml version="1.0" standalone="no"?>
<!DOCTYPE svg PUBLIC "-//W3C//DTD SVG 1.1//EN" "http://www.w3.org/Graphics/SVG/1.1/DTD/svg11.dtd" >
<svg xmlns="http://www.w3.org/2000/svg" xmlns:xlink="http://www.w3.org/1999/xlink" version="1.1" viewBox="-10 0 942 1000">
   <path fill="currentColor"
d="M629 340c21.5068 48.4141 40.1338 14.3555 78 -4c43.0684 -20.8779 56.7617 -84.6406 -3 -78h-60c-30.5215 9.05566 -15 41.2002 -15 82zM50 200h71.999v160l5 46c67.4727 -88.5273 280.605 -31.3945 418 -50c-5.00293 -181.735 262.706 -202.633 274.001 -60
c-11.8594 56.9238 -113.591 122.796 -152 142c-31.2637 106.1 116.93 150.923 224 142v62c-91.6338 -3.98438 -163.942 0.833984 -222 -34c-9 -6 -13 -10 -22 -16c-47.2949 -31.5293 -89.3818 -122.271 -100 -152c-365.762 -3.33105 -420 -63.6055 -420 360h-80z" />
</svg>
