<?xml version="1.0" standalone="no"?>
<!DOCTYPE svg PUBLIC "-//W3C//DTD SVG 1.1//EN" "http://www.w3.org/Graphics/SVG/1.1/DTD/svg11.dtd" >
<svg xmlns="http://www.w3.org/2000/svg" xmlns:xlink="http://www.w3.org/1999/xlink" version="1.1" viewBox="-10 0 673 1000">
   <path fill="currentColor"
d="M4 400h300h100c6 0 10 -1 16 0c9 1 13 1 22 4c10 3 17 5 26 10c7 4 11 8 16 14c13.9922 15.7412 20 25.1865 20 52c0.128906 11.6016 0.700195 23.8252 1.49609 36.4482c79.4463 -0.207031 147.504 -0.448242 147.504 -0.448242v60h-143.09
c4.68848 64.2314 6.87207 129.881 -17.9102 172c-40.0752 68.1113 -190.546 75.79 -218 -16c-4.17188 -13.9492 -7.20703 -21.9863 -8 -36c-2.98926 -52.8027 5.93359 -126.449 5.01074 -179.407c26.8936 0.231445 100.781 0.155273 176.492 -0.00585938
c-0.160156 -0.850586 -0.328125 -1.71191 -0.50293 -2.58691c-3 -15 -6.24609 -26.4951 -15 -39c-12.6465 -18.0664 -22.4707 -15 -54 -15h-374v-60zM452.812 576h-125.812s2 40.8838 2 61c0 61.5459 0.446289 80.0449 65 92c47.0898 8.7207 60 -39.0234 60 -84
c0 -22.5752 -0.163086 -45.1572 -1.1875 -69zM271.011 516.593c-0.00390625 -0.197266 -0.00683594 -0.395508 -0.0107422 -0.592773c-15.0918 0.290039 -13.2734 0.478516 0.0107422 0.592773z" />
</svg>
