<?xml version="1.0" standalone="no"?>
<!DOCTYPE svg PUBLIC "-//W3C//DTD SVG 1.1//EN" "http://www.w3.org/Graphics/SVG/1.1/DTD/svg11.dtd" >
<svg xmlns="http://www.w3.org/2000/svg" xmlns:xlink="http://www.w3.org/1999/xlink" version="1.1" viewBox="-10 0 612 1000">
   <path fill="currentColor"
d="M461 500v44c-25.3379 -10.0117 -27.4072 2.71582 -86.2734 4.79785l-94.4492 203.191c120.347 -0.34668 182.642 -9.02344 232.723 -5.39453v-494.595l-116.272 249.467c44.2334 0.888672 22.7617 -0.344727 64.2725 -1.4668zM373 902h-200l47.9355 -105.645
c-121.29 -14.0508 -215.763 -67.2021 -211.936 -130.355c8 -132 134 -166 286 -166c20.3359 0 41.3564 0.298828 62.6797 0.692383l185.32 -400.692v700h-66h-192c-9.02148 0 -17.9453 -0.210938 -26.749 -0.624023l-27.251 54.624h142v48zM334.72 550.337
c-22.9473 0.898438 -44.3262 1.66309 -61.7197 1.66309c-137 0 -190 38 -206 96c-13.4824 48.875 56.5264 96.0176 174.871 103.089z" />
</svg>
