<?xml version="1.0" standalone="no"?>
<!DOCTYPE svg PUBLIC "-//W3C//DTD SVG 1.1//EN" "http://www.w3.org/Graphics/SVG/1.1/DTD/svg11.dtd" >
<svg xmlns="http://www.w3.org/2000/svg" xmlns:xlink="http://www.w3.org/1999/xlink" version="1.1" viewBox="-10 0 735 1000">
   <path fill="currentColor"
d="M124 260v480h480v-480h-480zM64 198l600 2v600h-600v-602zM533.526 703.342v-395.646l-147.646 173.547zM186.698 698.596l123.922 -215.654l-122.383 -164.64c-0.875 70.9463 -3.52734 304.425 -1.53906 380.294zM560.54 297.642c0 0 -5.67969 425 0 425h-15.6201
h-12.7803h-42.5996l-123.54 -193.642v193.642h-25.5596v-196.047l-112.181 196.047h-39.7598h-15.6201h-11.3594v-425h11.3594h15.6201h34.0801l117.86 144.167v-144.167h25.5596v144.659l123.54 -144.659h52.54h18.46z" />
</svg>
