<?xml version="1.0" standalone="no"?>
<!DOCTYPE svg PUBLIC "-//W3C//DTD SVG 1.1//EN" "http://www.w3.org/Graphics/SVG/1.1/DTD/svg11.dtd" >
<svg xmlns="http://www.w3.org/2000/svg" xmlns:xlink="http://www.w3.org/1999/xlink" version="1.1" viewBox="-10 0 1024 1000">
   <path fill="currentColor"
d="M328.304 549.11c0 -106.144 77.6162 -192.629 172.872 -192.629s172.872 86.4854 172.872 192.629c0 106.143 -77.6162 192.628 -172.872 192.628s-172.872 -86.4854 -172.872 -192.628zM350.647 547.8c0 90.417 67.0322 163.8 149.353 163.8
c82.3193 0 149.352 -73.3828 149.352 -163.8s-67.0322 -163.8 -149.352 -163.8c-82.3203 0 -149.353 73.3828 -149.353 163.8zM501 200l348 549h-699zM501 101l-450 699h900zM590.882 652.499v-215.288l-78.334 94.4336zM406.87 649.916l65.7471 -117.347l-64.9307 -89.5859
c-0.462891 38.6045 -1.87109 165.649 -0.816406 206.933zM605.215 431.74c0 0 -3.01367 231.26 0 231.26h-8.28711h-6.78125h-22.6016l-65.5449 -105.369v105.369h-13.5605v-106.677l-59.5186 106.677h-21.0957h-8.28613h-6.02637v-231.26h6.02637h8.28613h18.082
l62.5322 78.4482v-78.4482h13.5605v78.7148l65.5449 -78.7148h27.875h9.79492z" />
</svg>
