<?xml version="1.0" standalone="no"?>
<!DOCTYPE svg PUBLIC "-//W3C//DTD SVG 1.1//EN" "http://www.w3.org/Graphics/SVG/1.1/DTD/svg11.dtd" >
<svg xmlns="http://www.w3.org/2000/svg" xmlns:xlink="http://www.w3.org/1999/xlink" version="1.1" viewBox="-10 0 749 1000">
   <path fill="currentColor"
d="M202.007 505.598c0 -93.8955 73.1807 -170.403 162.993 -170.403c89.8135 0 162.994 76.5078 162.994 170.403c0 93.8945 -73.1807 170.402 -162.994 170.402c-89.8125 0 -162.993 -76.5078 -162.993 -170.402zM223.074 504.438
c0 79.9844 63.2012 144.899 140.817 144.899s140.817 -64.915 140.817 -144.899c0 -79.9854 -63.2012 -144.9 -140.817 -144.9s-140.817 64.915 -140.817 144.9zM195.449 329.26v350.399h339.601v-350.399h-339.601zM150 284l424.5 1.45996l3 438h-424.5zM124 260v480h480
v-480h-480zM64 198l600 2v600h-600v-602z" />
</svg>
