<?xml version="1.0" standalone="no"?>
<!DOCTYPE svg PUBLIC "-//W3C//DTD SVG 1.1//EN" "http://www.w3.org/Graphics/SVG/1.1/DTD/svg11.dtd" >
<svg xmlns="http://www.w3.org/2000/svg" xmlns:xlink="http://www.w3.org/1999/xlink" version="1.1" viewBox="-10 0 1010 1000">
   <path fill="currentColor"
d="M330 376c0 -94.3037 80.2012 -174 166 -174c85.7979 0 170 71.6963 170 166c0 94.3027 -88.2021 190 -174 190c-85.7988 0 -162 -87.6973 -162 -182zM350.126 374.836c0 80.332 66.667 156.386 140.814 156.386c74.1465 0 152.816 -84.0537 152.816 -164.386
s-74.6699 -140.386 -148.816 -140.386c-74.1475 0 -144.814 68.0537 -144.814 148.386zM498 86l340.17 474.885h-683.272zM498 0.365234l-439.875 604.635l-1.125 195h90l3 -195l694 1l2 194h102l-10.125 -195z" />
</svg>
