<?xml version="1.0" standalone="no"?>
<!DOCTYPE svg PUBLIC "-//W3C//DTD SVG 1.1//EN" "http://www.w3.org/Graphics/SVG/1.1/DTD/svg11.dtd" >
<svg xmlns="http://www.w3.org/2000/svg" xmlns:xlink="http://www.w3.org/1999/xlink" version="1.1" viewBox="-10 0 1010 1000">
   <path fill="currentColor"
d="M499 68l382 330l2 364l-763 2l-1 -362zM498 0.365234l-439 399.635l-2 400h891l-9 -404zM202.771 463.655c0 -157.4 134.348 -285.655 299.229 -285.655s299.23 128.255 299.23 285.655s-134.349 285.654 -299.23 285.654s-299.229 -128.254 -299.229 -285.654z
M241.446 461.712c0 134.083 116.028 242.903 258.518 242.903c142.491 0 258.519 -108.82 258.519 -242.903c0 -134.082 -116.027 -242.902 -258.519 -242.902c-142.489 0 -258.518 108.82 -258.518 242.902z" />
</svg>
