<?xml version="1.0" standalone="no"?>
<!DOCTYPE svg PUBLIC "-//W3C//DTD SVG 1.1//EN" "http://www.w3.org/Graphics/SVG/1.1/DTD/svg11.dtd" >
<svg xmlns="http://www.w3.org/2000/svg" xmlns:xlink="http://www.w3.org/1999/xlink" version="1.1" viewBox="-10 0 1010 1000">
   <path fill="currentColor"
d="M342.043 605.529c0 -79.6084 74.5117 -144.472 165.957 -144.472c91.4463 0 165.958 64.8633 165.958 144.472c0 79.6064 -74.5117 144.471 -165.958 144.471c-91.4453 0 -165.957 -64.8643 -165.957 -144.471zM363.493 604.546c0 67.8125 64.3506 122.85 143.379 122.85
c79.0264 0 143.377 -55.0371 143.377 -122.85s-64.3506 -122.85 -143.377 -122.85c-79.0283 0 -143.379 55.0371 -143.379 122.85zM501 101l-450 699h900zM624.595 394.98l-246.996 -1.96777l123.401 -193.013zM662.644 455.007l186.356 293.992h-699l187.342 -293.021z" />
</svg>
