<?xml version="1.0" standalone="no"?>
<!DOCTYPE svg PUBLIC "-//W3C//DTD SVG 1.1//EN" "http://www.w3.org/Graphics/SVG/1.1/DTD/svg11.dtd" >
<svg xmlns="http://www.w3.org/2000/svg" xmlns:xlink="http://www.w3.org/1999/xlink" version="1.1" viewBox="-10 0 1020 1000">
   <path fill="currentColor"
d="M207.388 410.488c0 -130.31 132.725 -236.488 295.612 -236.488c162.887 0 295.611 106.179 295.611 236.488s-132.725 236.489 -295.611 236.489c-162.888 0 -295.612 -106.18 -295.612 -236.489zM245.597 408.88c0 111.005 114.625 201.097 255.393 201.097
c140.767 0 255.391 -90.0918 255.391 -201.097s-114.624 -201.096 -255.391 -201.096c-140.768 0 -255.393 90.0908 -255.393 201.096zM499 48l-454 350l452 364l460 -360zM499 2l501 398l-501 400l-499 -402z" />
</svg>
