<?xml version="1.0" standalone="no"?>
<!DOCTYPE svg PUBLIC "-//W3C//DTD SVG 1.1//EN" "http://www.w3.org/Graphics/SVG/1.1/DTD/svg11.dtd" >
<svg xmlns="http://www.w3.org/2000/svg" xmlns:xlink="http://www.w3.org/1999/xlink" version="1.1" viewBox="-10 0 1010 1000">
   <path fill="currentColor"
d="M291.26 441.776c0 -123.004 98.1689 -256.776 213.74 -256.776c115.572 0 234 124 205.742 256.776c-25.6035 120.307 -94.1699 223.224 -209.742 223.224c-115.571 0 -209.74 -100.223 -209.74 -223.224zM318.368 440.257c0 104.778 81.3291 189.818 181.205 189.818
c99.877 0 181.205 -85.04 181.205 -189.818s-77.3281 -223.369 -177.205 -223.369c-99.876 0 -185.205 118.591 -185.205 223.369zM507 106l-348 290l338 366l362 -362zM110 65v-18l796 2v18l-391.988 -1l387.988 332l-403 402l-385 -404l385.982 -330z" />
</svg>
