<?xml version="1.0" standalone="no"?>
<!DOCTYPE svg PUBLIC "-//W3C//DTD SVG 1.1//EN" "http://www.w3.org/Graphics/SVG/1.1/DTD/svg11.dtd" >
<svg xmlns="http://www.w3.org/2000/svg" xmlns:xlink="http://www.w3.org/1999/xlink" version="1.1" viewBox="-10 0 1010 1000">
   <path fill="currentColor"
d="M708 420c0 -122.689 -94.3193 -222.66 -210.074 -222.66c-115.756 0 -210.075 99.9707 -210.075 222.66s94.3193 222.659 210.075 222.659c115.755 0 210.074 -99.9697 210.074 -222.659zM680.847 418.485c0 104.514 -81.457 189.336 -181.493 189.336
c-100.034 0 -181.491 -84.8223 -181.491 -189.336s81.457 -189.336 181.491 -189.336c100.036 0 181.493 84.8223 181.493 189.336zM110.062 407.382l382.92 -327.382l-382.031 -0.979492zM109.067 775h378.932l-377.952 -362.08zM84.999 800l2 -739l825 2l1 737h-828z
M499.999 120l-348 290l336 328l364 -324zM886.023 80.9668l-379.013 -0.966797l379.452 324.695zM886.483 419.671l-394.484 355.329l394.957 -6.94629z" />
</svg>
