<?xml version="1.0" standalone="no"?>
<!DOCTYPE svg PUBLIC "-//W3C//DTD SVG 1.1//EN" "http://www.w3.org/Graphics/SVG/1.1/DTD/svg11.dtd" >
<svg xmlns="http://www.w3.org/2000/svg" xmlns:xlink="http://www.w3.org/1999/xlink" version="1.1" viewBox="-10 0 804 1000">
   <path fill="currentColor"
d="M41.2559 453c0 -190.512 155.232 -345.744 345.744 -345.744s345.744 155.232 345.744 345.744s-155.232 345.744 -345.744 345.744s-345.744 -155.232 -345.744 -345.744zM85.9443 450.648c0 162.288 134.063 294 298.704 294c164.64 0 298.703 -131.712 298.703 -294
s-134.063 -294 -298.703 -294c-164.641 0 -298.704 131.712 -298.704 294zM445 215v502h60v-502h-60zM355 215h60v502h-60v-502zM261 215h60v502h-60v-502z" />
</svg>
