<?xml version="1.0" standalone="no"?>
<!DOCTYPE svg PUBLIC "-//W3C//DTD SVG 1.1//EN" "http://www.w3.org/Graphics/SVG/1.1/DTD/svg11.dtd" >
<svg xmlns="http://www.w3.org/2000/svg" xmlns:xlink="http://www.w3.org/1999/xlink" version="1.1" viewBox="-10 0 804 1000">
   <path fill="currentColor"
d="M17.2559 453c0 -190.512 155.232 -345.744 345.744 -345.744s345.744 155.232 345.744 345.744s-155.232 345.744 -345.744 345.744s-345.744 -155.232 -345.744 -345.744zM61.9443 450.648c0 162.288 134.063 294 298.704 294c164.64 0 298.703 -131.712 298.703 -294
s-134.063 -294 -298.703 -294c-164.641 0 -298.704 131.712 -298.704 294zM200.119 255.41h13.9141h30.3555l116.363 164.158l121.422 -164.158h46.7988l-139.13 188.606l141.66 247.983h-49.3291l-122.688 -221.787l-110.039 221.787h-35.4141h-13.9141h-10.1191v-436.59
h10.1191zM236 641l83.9209 -196.236l-83.9209 -137.764c-0.763672 72.8799 -1.7373 256.062 0 334z" />
</svg>
