<?xml version="1.0" standalone="no"?>
<!DOCTYPE svg PUBLIC "-//W3C//DTD SVG 1.1//EN" "http://www.w3.org/Graphics/SVG/1.1/DTD/svg11.dtd" >
<svg xmlns="http://www.w3.org/2000/svg" xmlns:xlink="http://www.w3.org/1999/xlink" version="1.1" viewBox="-10 0 814 1000">
   <path fill="currentColor"
d="M221.018 348.214h299.98v33.7861v76.8896h-39.998v-76.8896h-219.986v76.8896h-39.9961v-76.8896v-5.82617v-27.96zM195.449 329.26v350.399h339.601v-350.399h-339.601zM150 284l424.5 1.45996l3 438h-424.5zM124 260v480h480v-480h-480zM64 198l600 2v600h-600v-602z
M460.72 412.84c0 0 -2.55957 255 0 255h-7.04004h-5.75977h-19.2002l-62.0801 -129.54l-55.6797 129.54h-17.9199h-7.04004h-5.12012v-255h5.12012h7.04004h15.3604l58.8799 95.8799l61.4395 -95.8799h23.6807h8.31934zM295.28 653.05l52.7998 -129.029l-52.1064 -99.1465z
M444.4 657.13v-237.388l-62.4004 103.258z" />
</svg>
