<?xml version="1.0" standalone="no"?>
<!DOCTYPE svg PUBLIC "-//W3C//DTD SVG 1.1//EN" "http://www.w3.org/Graphics/SVG/1.1/DTD/svg11.dtd" >
<svg xmlns="http://www.w3.org/2000/svg" xmlns:xlink="http://www.w3.org/1999/xlink" version="1.1" viewBox="-10 0 719 1000">
   <path fill="currentColor"
d="M195.449 329.26v350.399h339.601v-350.399h-339.601zM150 284l424.5 1.45996l3 438h-424.5zM124 260v480h480v-480h-480zM64 198l600 2v600h-600v-602zM350.805 389.986h-76.2949l76.2949 82.1445v-82.1445zM451.547 388.545h-81.5469v83.9072zM516.097 378.1
c0 0 -4.26562 277.2 0 277.2h-299.659v-277.2h8.53125h291.128zM235.346 639.616l93.0645 -140.657l-91.9082 -107.384c-0.657227 46.2734 -2.64844 198.557 -1.15625 248.041zM495.811 642.712v-258.054l-110.882 113.192zM452.711 641.598l-82.7109 -112.598v111.663z
M350.805 640.445v-113.014l-73.9092 112.18z" />
</svg>
