<?xml version="1.0" standalone="no"?>
<!DOCTYPE svg PUBLIC "-//W3C//DTD SVG 1.1//EN" "http://www.w3.org/Graphics/SVG/1.1/DTD/svg11.dtd" >
<svg xmlns="http://www.w3.org/2000/svg" xmlns:xlink="http://www.w3.org/1999/xlink" version="1.1" viewBox="-10 0 739 1000">
   <path fill="currentColor"
d="M221.018 348.214h299.98v33.7861v76.8896h-39.998v-76.8896h-219.986v76.8896h-39.9961v-76.8896v-5.82617v-27.96zM195.449 329.26v350.399h339.601v-350.399h-339.601zM150 284l424.5 1.45996l3 438h-424.5zM124 260v480h480v-480h-480zM64 198l600 2v600h-600v-602z
M459.963 654.952v-246.979l-75.7617 108.336zM281.995 651.989l63.5879 -134.619l-62.7979 -102.775c-0.448242 44.2871 -1.81055 190.033 -0.790039 237.395zM473.823 401.698c0 0 -2.91406 265.302 0 265.302h-8.01367h-6.55859h-21.8594l-63.3916 -120.879v120.879
h-13.1152v-122.381l-57.5625 122.381h-20.4023h-8.01465h-5.8291v-265.302h5.8291h8.01465h17.4873l60.4775 89.9941v-89.9941h13.1152v90.3018l63.3916 -90.3018h26.96h9.47168z" />
</svg>
