<?xml version="1.0" standalone="no"?>
<!DOCTYPE svg PUBLIC "-//W3C//DTD SVG 1.1//EN" "http://www.w3.org/Graphics/SVG/1.1/DTD/svg11.dtd" >
<svg xmlns="http://www.w3.org/2000/svg" xmlns:xlink="http://www.w3.org/1999/xlink" version="1.1" viewBox="-10 0 742 1000">
   <path fill="currentColor"
d="M17.2559 453c0 -190.512 155.232 -345.744 345.744 -345.744s345.744 155.232 345.744 345.744s-155.232 345.744 -345.744 345.744s-345.744 -155.232 -345.744 -345.744zM61.9443 450.648c0 162.288 134.063 294 298.704 294c164.64 0 298.703 -131.712 298.703 -294
s-134.063 -294 -298.703 -294c-164.641 0 -298.704 131.712 -298.704 294zM524.211 658.186v-365.184l-140.954 160.184zM193.103 653.805l118.306 -199.049l-116.837 -151.964c-0.834961 65.4824 -3.36621 280.985 -1.46875 351.013zM550 283.722
c0 0 -5.42188 392.278 0 392.278h-14.9121h-12.2002h-40.6699l-117.939 -178.733v178.733h-24.4023v-180.953l-107.096 180.953h-37.958h-14.9121h-10.8447v-392.278h10.8447h14.9121h32.5361l112.518 133.067v-133.067h24.4023v133.521l117.939 -133.521h50.1602h17.6221z
" />
</svg>
