<?xml version="1.0" standalone="no"?>
<!DOCTYPE svg PUBLIC "-//W3C//DTD SVG 1.1//EN" "http://www.w3.org/Graphics/SVG/1.1/DTD/svg11.dtd" >
<svg xmlns="http://www.w3.org/2000/svg" xmlns:xlink="http://www.w3.org/1999/xlink" version="1.1" viewBox="-10 0 721 1000">
   <path fill="currentColor"
d="M190.912 502.241c0 103.289 78.0674 186.367 173.212 186.367s173.211 -83.0781 173.211 -186.367s-78.0664 -186.369 -173.211 -186.369s-173.212 83.0801 -173.212 186.369zM149.74 502.7c0 -124.26 94.1602 -224.54 209.72 -224.54s209.72 100.28 209.72 224.54
s-94.1602 224.54 -209.72 224.54s-209.72 -100.28 -209.72 -224.54zM124 260v480h480v-480h-480zM64 198l600 2v600h-600v-602zM349.683 408.664h-66.5371l67.7041 57.3887zM437.54 407.453h-71.1172l1.16699 58.8701zM495 387.023c0 0 -3.7207 232.977 0 232.977h-261.33
v-232.977h7.43945h253.891zM261 586l70.3193 -97.3994l-71.3193 -81.6006c-0.572266 38.8906 -0.301758 137.41 1 179zM468 591l-2.00781 -187.415l-85.3828 84.085zM440.562 590.666l-72.9717 -76.8174l0.84082 76.0303zM351.69 589.697l-0.84082 -77.166l-63.6143 76.4648
z" />
</svg>
