<?xml version="1.0" standalone="no"?>
<!DOCTYPE svg PUBLIC "-//W3C//DTD SVG 1.1//EN" "http://www.w3.org/Graphics/SVG/1.1/DTD/svg11.dtd" >
<svg xmlns="http://www.w3.org/2000/svg" xmlns:xlink="http://www.w3.org/1999/xlink" version="1.1" viewBox="-10 0 763 1000">
   <path fill="currentColor"
d="M195.449 329.26v350.399h339.601v-350.399h-339.601zM150 284l424.5 1.45996l3 438h-424.5zM124 260v480h480v-480h-480zM64 198l600 2v600h-600v-602zM497.648 355.478c0 0 -3.93652 316.101 0 316.101h-10.8252h-8.85547h-29.5195l-95.4482 -160.578l-85.6074 160.578
h-27.5527h-10.8242h-7.87109v-316.101h7.87109h10.8242h23.6162l90.5273 118.854l94.4648 -118.854h36.4072h12.793zM243.283 653.245l81.1807 -159.947l-80.1133 -122.902zM472.556 658.302v-294.267l-95.9404 127.998z" />
</svg>
