<?xml version="1.0" standalone="no"?>
<!DOCTYPE svg PUBLIC "-//W3C//DTD SVG 1.1//EN" "http://www.w3.org/Graphics/SVG/1.1/DTD/svg11.dtd" >
<svg xmlns="http://www.w3.org/2000/svg" xmlns:xlink="http://www.w3.org/1999/xlink" version="1.1" viewBox="-10 0 980 1000">
   <path fill="currentColor"
d="M328.304 549.11c0 -106.144 77.6162 -192.629 172.872 -192.629s172.872 86.4854 172.872 192.629c0 106.143 -77.6162 192.628 -172.872 192.628s-172.872 -86.4854 -172.872 -192.628zM350.647 547.8c0 90.417 67.0322 163.8 149.353 163.8
c82.3193 0 149.352 -73.3828 149.352 -163.8s-67.0322 -163.8 -149.352 -163.8c-82.3203 0 -149.353 73.3828 -149.353 163.8zM501 200l348 549h-699zM501 101l-450 699h900zM600.64 428c0 0 -2.87988 240 0 240h-7.91992h-6.47949h-21.6006l-69.8398 -121.92
l-62.6396 121.92h-20.1602h-7.91992h-5.75977v-240h5.75977h7.91992h17.2803l66.2393 90.2402l69.1201 -90.2402h26.6406h9.35938zM414.52 654.08l59.4004 -121.44l-58.6191 -93.3135zM582.28 657.92v-223.424l-70.2002 97.1836z" />
</svg>
