<?xml version="1.0" standalone="no"?>
<!DOCTYPE svg PUBLIC "-//W3C//DTD SVG 1.1//EN" "http://www.w3.org/Graphics/SVG/1.1/DTD/svg11.dtd" >
<svg xmlns="http://www.w3.org/2000/svg" xmlns:xlink="http://www.w3.org/1999/xlink" version="1.1" viewBox="-10 0 751 1000">
   <path fill="currentColor"
d="M221.018 348.214h299.98v33.7861v76.8896h-39.998v-76.8896h-219.986v76.8896h-39.9961v-76.8896v-5.82617v-27.96zM195.449 329.26v350.399h339.601v-350.399h-339.601zM150 284l424.5 1.45996l3 438h-424.5zM124 260v480h480v-480h-480zM64 198l600 2v600h-600v-602z
M456.225 655.605v-237.388l-70.7041 104.128zM290.138 652.758l59.3428 -129.392l-58.6055 -98.7842c-0.418945 42.5674 -1.68945 182.654 -0.737305 228.176zM469.16 412.186c0 0 -2.71973 255 0 255h-7.47949h-6.12012h-20.4004l-59.1602 -116.186v116.186h-12.2393
v-117.628l-53.7207 117.628h-19.04h-7.47949h-5.44043v-255h191.08zM428 421.794h-52v77.1875zM363.761 423.12h-48.6504l48.6504 75.5654v-75.5654z" />
</svg>
