<?xml version="1.0" standalone="no"?>
<!DOCTYPE svg PUBLIC "-//W3C//DTD SVG 1.1//EN" "http://www.w3.org/Graphics/SVG/1.1/DTD/svg11.dtd" >
<svg xmlns="http://www.w3.org/2000/svg" xmlns:xlink="http://www.w3.org/1999/xlink" version="1.1" viewBox="-10 0 1006 1000">
   <path fill="currentColor"
d="M340 462h314.975v33.165v75.4795h-41.998v-75.4795h-230.981v75.4795h-41.9951v-75.4795v-5.7168v-27.4482zM501 200l348 549h-699zM501 101l-450 699h900zM579.546 713.735v-203.642l-71.8691 89.3252zM410.723 711.292l60.3213 -110.998l-59.5723 -84.7412
c-0.424805 36.5166 -1.71582 156.688 -0.749023 195.739zM592.694 504.919c0 0 -2.76465 218.75 0 218.75h-7.60352h-6.21973h-20.7363l-60.1348 -99.6689v99.6689h-12.4414v-100.906l-54.6045 100.906h-19.3535h-7.60352h-5.5293v-218.75h5.5293h7.60352h16.5879
l57.3701 74.2031v-74.2031h12.4414v74.457l60.1348 -74.457h25.5742h8.98535z" />
</svg>
