<?xml version="1.0" standalone="no"?>
<!DOCTYPE svg PUBLIC "-//W3C//DTD SVG 1.1//EN" "http://www.w3.org/Graphics/SVG/1.1/DTD/svg11.dtd" >
<svg xmlns="http://www.w3.org/2000/svg" xmlns:xlink="http://www.w3.org/1999/xlink" version="1.1" viewBox="-10 0 769 1000">
   <path fill="currentColor"
d="M554 278c0 0 -5.53223 391 0 391h-15.2119h-12.4473h-41.4893l-134.148 -198.629l-120.319 198.629h-38.7236h-15.2119h-11.0645v-391h11.0645h15.2119h33.1914l127.233 147.016l132.767 -147.016h51.1709h17.9775zM196.501 646.321l114.096 -197.846l-112.597 -152.024z
M518.734 652.577v-363.994l-134.84 158.328zM17.2559 453c0 -190.512 155.232 -345.744 345.744 -345.744s345.744 155.232 345.744 345.744s-155.232 345.744 -345.744 345.744s-345.744 -155.232 -345.744 -345.744zM61.9443 450.648c0 162.288 134.063 294 298.704 294
c164.64 0 298.703 -131.712 298.703 -294s-134.063 -294 -298.703 -294c-164.641 0 -298.704 131.712 -298.704 294z" />
</svg>
