<?xml version="1.0" standalone="no"?>
<!DOCTYPE svg PUBLIC "-//W3C//DTD SVG 1.1//EN" "http://www.w3.org/Graphics/SVG/1.1/DTD/svg11.dtd" >
<svg xmlns="http://www.w3.org/2000/svg" xmlns:xlink="http://www.w3.org/1999/xlink" version="1.1" viewBox="-10 0 1000 1000">
   <path fill="currentColor"
d="M328.304 549.11c0 -106.144 77.6162 -192.629 172.872 -192.629s172.872 86.4854 172.872 192.629c0 106.143 -77.6162 192.628 -172.872 192.628s-172.872 -86.4854 -172.872 -192.628zM350.647 547.8c0 90.417 67.0322 163.8 149.353 163.8
c82.3193 0 149.352 -73.3828 149.352 -163.8s-67.0322 -163.8 -149.352 -163.8c-82.3203 0 -149.353 73.3828 -149.353 163.8zM501 200l348 549h-699zM501 101l-450 699h900zM594.393 649.954v-205.922l-80.4775 90.3262zM405.347 647.483l67.5459 -112.24l-66.707 -85.6904
c-0.477539 36.9248 -1.92285 158.443 -0.838867 197.931zM609.117 438.8c0 0 -3.09668 221.2 0 221.2h-8.51465h-6.96582h-23.2197l-67.3379 -100.785v100.785h-13.9326v-102.037l-61.1465 102.037h-21.6709h-8.51465h-6.19238v-221.2h217.495zM562.267 447.134h-59.1875
v66.9561zM489.146 448.285h-55.376l55.376 65.5488v-65.5488z" />
</svg>
