<?xml version="1.0" standalone="no"?>
<!DOCTYPE svg PUBLIC "-//W3C//DTD SVG 1.1//EN" "http://www.w3.org/Graphics/SVG/1.1/DTD/svg11.dtd" >
<svg xmlns="http://www.w3.org/2000/svg" xmlns:xlink="http://www.w3.org/1999/xlink" version="1.1" viewBox="-10 0 739 1000">
   <path fill="currentColor"
d="M190.912 502.241c0 103.289 78.0674 186.367 173.212 186.367s173.211 -83.0781 173.211 -186.367s-78.0664 -186.369 -173.211 -186.369s-173.212 83.0801 -173.212 186.369zM149.74 502.7c0 -124.26 94.1602 -224.54 209.72 -224.54s209.72 100.28 209.72 224.54
s-94.1602 224.54 -209.72 224.54s-209.72 -100.28 -209.72 -224.54zM124 260v480h480v-480h-480zM64 198l600 2v600h-600v-602zM257.497 368.684h9.38477h20.4766l78.4951 102.648l81.9062 -102.648h31.5684l-93.8516 117.937l95.5586 155.063h-33.2754l-82.7598 -138.684
l-74.2285 138.684h-23.8896h-9.38477h-6.82617v-273h6.82617zM283 601l57.2568 -113.288l-59.2568 -98.7119z" />
</svg>
