<?xml version="1.0" standalone="no"?>
<!DOCTYPE svg PUBLIC "-//W3C//DTD SVG 1.1//EN" "http://www.w3.org/Graphics/SVG/1.1/DTD/svg11.dtd" >
<svg xmlns="http://www.w3.org/2000/svg" xmlns:xlink="http://www.w3.org/1999/xlink" version="1.1" viewBox="-10 0 757 1000">
   <path fill="currentColor"
d="M202.007 505.598c0 -93.8955 73.1807 -170.403 162.993 -170.403c89.8135 0 162.994 76.5078 162.994 170.403c0 93.8945 -73.1807 170.402 -162.994 170.402c-89.8125 0 -162.993 -76.5078 -162.993 -170.402zM223.074 504.438
c0 79.9844 63.2012 144.899 140.817 144.899s140.817 -64.915 140.817 -144.899c0 -79.9854 -63.2012 -144.9 -140.817 -144.9s-140.817 64.915 -140.817 144.9zM195.449 329.26v350.399h339.601v-350.399h-339.601zM150 284l424.5 1.45996l3 438h-424.5zM124 260v480h480
v-480h-480zM64 198l600 2v600h-600v-602zM449.085 596.961l-0.376953 -188.466l-73.3965 89.1641zM275.786 594.839l61.9199 -96.4189l-61.5273 -85.1826c-0.436523 31.7197 -1.38477 147.681 -0.392578 181.602zM462.206 404
c0.505859 -35.8145 -2.50586 204.681 0.376953 201.591h-7.80566h-6.38574h-21.2852l-61.7295 -86.5791v86.5791h-12.7715v-87.6543l-56.0508 87.6543h-19.8672h-7.80566h-5.67578l-0.376953 -201.591h5.67578h7.80566h17.0293l59.2656 76.0283l-0.376953 -76.0283h12.7715
l0.376953 76.249l61.3525 -76.249h26.252h9.22461z" />
</svg>
