<?xml version="1.0" standalone="no"?>
<!DOCTYPE svg PUBLIC "-//W3C//DTD SVG 1.1//EN" "http://www.w3.org/Graphics/SVG/1.1/DTD/svg11.dtd" >
<svg xmlns="http://www.w3.org/2000/svg" xmlns:xlink="http://www.w3.org/1999/xlink" version="1.1" viewBox="-10 0 767 1000">
   <path fill="currentColor"
d="M190.912 502.241c0 103.289 78.0674 186.367 173.212 186.367s173.211 -83.0781 173.211 -186.367s-78.0664 -186.369 -173.211 -186.369s-173.212 83.0801 -173.212 186.369zM149.74 502.7c0 -124.26 94.1602 -224.54 209.72 -224.54s209.72 100.28 209.72 224.54
s-94.1602 224.54 -209.72 224.54s-209.72 -100.28 -209.72 -224.54zM124 260v480h480v-480h-480zM64 198l600 2v600h-600v-602zM474.198 616.088v-223.702l-93.7461 98.125zM253.986 613.404l78.6816 -121.933l-77.7041 -93.0898
c-0.556641 40.1143 -2.24023 172.125 -0.977539 215.022zM491.35 386.7c0 0 -3.60645 240.3 0 240.3h-9.91797h-8.11426h-27.0479l-78.4395 -109.487v109.487h-16.2285v-110.847l-71.2256 110.847h-25.2461h-9.91797h-7.21191v-240.3h7.21191h9.91797
c12.9678 0 121.974 2.80176 183.025 0.669922c16.2842 -0.568359 25.8506 -1.12012 41.4736 -0.669922h11.7207zM436.775 395.755h-68.9453v72.7373zM351.602 397.005h-64.5049l64.5049 71.21v-71.21z" />
</svg>
