<?xml version="1.0" standalone="no"?>
<!DOCTYPE svg PUBLIC "-//W3C//DTD SVG 1.1//EN" "http://www.w3.org/Graphics/SVG/1.1/DTD/svg11.dtd" >
<svg xmlns="http://www.w3.org/2000/svg" xmlns:xlink="http://www.w3.org/1999/xlink" version="1.1" viewBox="-10 0 733 1000">
   <path fill="currentColor"
d="M124 260v480h480v-480h-480zM64 198l600 2v600h-600v-602zM346.804 332.707h-101.993l101.529 100.968zM481.48 330.625h-109.017l-0.463867 103.514zM567.308 297.92c0 0 -5.70215 400.2 0 400.2h-400.593v-400.2h11.4043h389.188zM198.455 659.009l117.947 -186.602
l-122.402 -137.407c-0.87793 66.8057 2.45996 252.566 4.45508 324.009zM546.652 663.478l-6 -338.465l-148.693 145.794zM489.036 661.869l-117.036 -146.091l6.46387 144.741zM352.804 660.206l-6.46387 -146.693l-92.3398 145.487z" />
</svg>
