<?xml version="1.0" standalone="no"?>
<!DOCTYPE svg PUBLIC "-//W3C//DTD SVG 1.1//EN" "http://www.w3.org/Graphics/SVG/1.1/DTD/svg11.dtd" >
<svg xmlns="http://www.w3.org/2000/svg" xmlns:xlink="http://www.w3.org/1999/xlink" version="1.1" viewBox="-10 0 700 1000">
   <path fill="currentColor"
d="M20 110h630v58v132h-84v-132h-462v132h-84v-132v-10v-48zM511.245 772.521v-460.812l-151.806 202.13zM154.646 766.993l127.413 -251.173l-125.83 -191.758c-0.899414 82.6318 -3.62598 354.565 -1.58301 442.931zM539.02 300c0 0 -6.21973 500 -0.379883 500h-16.0596
h-13.1406h-43.7998l-126.64 -230.536l-0.379883 230.536h-26.2803l0.379883 -233.337l-115.72 233.337h-40.8799h-16.0605h-11.6797l0.379883 -500h11.6797h16.0605h35.04l121.18 167.912v-167.912h26.2803v168.485l127.02 -168.485h54.0205h18.9795z" />
</svg>
