<?xml version="1.0" standalone="no"?>
<!DOCTYPE svg PUBLIC "-//W3C//DTD SVG 1.1//EN" "http://www.w3.org/Graphics/SVG/1.1/DTD/svg11.dtd" >
<svg xmlns="http://www.w3.org/2000/svg" xmlns:xlink="http://www.w3.org/1999/xlink" version="1.1" viewBox="-10 0 984 1000">
   <path fill="currentColor"
d="M328.304 549.11c0 -106.144 77.6162 -192.629 172.872 -192.629s172.872 86.4854 172.872 192.629c0 106.143 -77.6162 192.628 -172.872 192.628s-172.872 -86.4854 -172.872 -192.628zM350.647 547.8c0 90.417 67.0322 163.8 149.353 163.8
c82.3193 0 149.352 -73.3828 149.352 -163.8s-67.0322 -163.8 -149.352 -163.8c-82.3203 0 -149.353 73.3828 -149.353 163.8zM501 200l348 549h-699zM501 101l-450 699h900zM488.581 441.816h-56.3438l56.3438 67.8486v-67.8486zM562.979 440.625h-60.2227v69.3057z
M610.647 431.999c0 0 -3.15039 228.959 0 228.959h-221.295v-228.959h6.2998h214.995zM403.316 648.004l68.7256 -116.18l-67.8721 -88.6953c-0.486328 38.2197 -1.95605 164.002 -0.853516 204.875zM595.666 650.561v-213.146l-81.8848 93.4951zM563.837 649.641
l-61.0811 -93.0039v92.2305zM488.581 648.688v-93.3467l-54.5811 92.6582z" />
</svg>
