<?xml version="1.0" standalone="no"?>
<!DOCTYPE svg PUBLIC "-//W3C//DTD SVG 1.1//EN" "http://www.w3.org/Graphics/SVG/1.1/DTD/svg11.dtd" >
<svg xmlns="http://www.w3.org/2000/svg" xmlns:xlink="http://www.w3.org/1999/xlink" version="1.1" viewBox="-10 0 739 1000">
   <path fill="currentColor"
d="M190.912 502.241c0 103.289 78.0674 186.367 173.212 186.367s173.211 -83.0781 173.211 -186.367s-78.0664 -186.369 -173.211 -186.369s-173.212 83.0801 -173.212 186.369zM149.74 502.7c0 -124.26 94.1602 -224.54 209.72 -224.54s209.72 100.28 209.72 224.54
s-94.1602 224.54 -209.72 224.54s-209.72 -100.28 -209.72 -224.54zM124 260v480h480v-480h-480zM64 198l600 2v600h-600v-602zM486.665 378.428c0 0 -3.45703 252 0 252h-9.50391h-7.77734h-25.9189l-83.8076 -128.017l-75.1689 128.017h-24.1924h-9.50391h-6.91211v-252
h6.91211h9.50391h20.7363l79.4883 94.752l82.9443 -94.752h31.9678h11.2324zM263.32 615.812l71.2793 -127.512l-70.3438 -97.9805zM464.633 619.843v-234.595l-84.2412 102.043z" />
</svg>
