<?xml version="1.0" standalone="no"?>
<!DOCTYPE svg PUBLIC "-//W3C//DTD SVG 1.1//EN" "http://www.w3.org/Graphics/SVG/1.1/DTD/svg11.dtd" >
<svg xmlns="http://www.w3.org/2000/svg" xmlns:xlink="http://www.w3.org/1999/xlink" version="1.1" viewBox="-10 0 729 1000">
   <path fill="currentColor"
d="M190.912 502.241c0 103.289 78.0674 186.367 173.212 186.367s173.211 -83.0781 173.211 -186.367s-78.0664 -186.369 -173.211 -186.369s-173.212 83.0801 -173.212 186.369zM149.74 502.7c0 -124.26 94.1602 -224.54 209.72 -224.54s209.72 100.28 209.72 224.54
s-94.1602 224.54 -209.72 224.54s-209.72 -100.28 -209.72 -224.54zM124 260v480h480v-480h-480zM64 198l600 2v600h-600v-602zM469.42 626.926v-238.086l-88.8379 104.434zM260.736 624.069l74.5625 -129.772l-73.6367 -99.0742
c-0.526367 42.6914 -2.12207 183.191 -0.925781 228.847zM484.088 380.25c0 0 -3.41699 255.75 0 255.75h-9.39844h-7.68945h-25.6318l-74.333 -116.528v116.528h-15.3799v-117.975l-67.4971 117.975h-23.9229h-9.39844h-6.83594v-255.75h6.83594h9.39844h20.5049
l70.915 86.7539v-86.7539h15.3799v87.0508l74.333 -87.0508h31.6123h11.1074z" />
</svg>
