<?xml version="1.0" standalone="no"?>
<!DOCTYPE svg PUBLIC "-//W3C//DTD SVG 1.1//EN" "http://www.w3.org/Graphics/SVG/1.1/DTD/svg11.dtd" >
<svg xmlns="http://www.w3.org/2000/svg" xmlns:xlink="http://www.w3.org/1999/xlink" version="1.1" viewBox="-10 0 1028 1000">
   <path fill="currentColor"
d="M340 462h314.975v33.165v75.4795h-41.998v-75.4795h-230.981v75.4795h-41.9951v-75.4795v-5.7168v-27.4482zM501 200l348 549h-699zM501 101l-450 699h900zM586.094 721.216v-188.849l-74.1133 82.8359zM411.996 718.949l62.2061 -102.935l-61.4336 -78.5859
c-0.439453 33.8643 -1.77051 145.308 -0.772461 181.521zM599.654 527.567c0 0 -2.85156 202.86 0 202.86h-7.8418h-6.41504h-21.3838l-62.0137 -92.4277v92.4277h-12.8301v-93.5762l-56.3105 93.5762h-19.959h-7.84082h-5.70215v-202.86h200.297zM556.508 535.212h-54.5078
v61.4033zM489.17 536.268h-50.9971l50.9971 60.1143v-60.1143z" />
</svg>
