<?xml version="1.0" standalone="no"?>
<!DOCTYPE svg PUBLIC "-//W3C//DTD SVG 1.1//EN" "http://www.w3.org/Graphics/SVG/1.1/DTD/svg11.dtd" >
<svg xmlns="http://www.w3.org/2000/svg" xmlns:xlink="http://www.w3.org/1999/xlink" version="1.1" viewBox="-10 0 794 1000">
   <path fill="currentColor"
d="M17.2559 453c0 -190.512 155.232 -345.744 345.744 -345.744s345.744 155.232 345.744 345.744s-155.232 345.744 -345.744 345.744s-345.744 -155.232 -345.744 -345.744zM61.9443 450.648c0 162.288 134.063 294 298.704 294c164.64 0 298.703 -131.712 298.703 -294
s-134.063 -294 -298.703 -294c-164.641 0 -298.704 131.712 -298.704 294zM340.885 298.757h-120.154l119.265 90.5693zM499.543 296.857h-128.428l-0.890625 92.8936zM600.311 265.453c0 0 -6.71973 365.178 0 365.178h-471.926v-365.178h13.4346h18.4766
c24.1514 0 227.202 4.25488 340.927 1.01758c30.334 -0.865234 48.1523 -1.7041 77.2559 -1.01758h21.832zM175.409 594.844l129.317 -170.173l-129.317 -120.511c-1.03613 60.96 -2.35059 225.492 0 290.684zM544.887 594.844l-3.35742 -293.604l-147.792 121.969zM501 596
l-130.775 -131.755l0.515625 130.522zM340.51 594.483l-0.514648 -132.304l-115.882 131.203z" />
</svg>
