<?xml version="1.0" standalone="no"?>
<!DOCTYPE svg PUBLIC "-//W3C//DTD SVG 1.1//EN" "http://www.w3.org/Graphics/SVG/1.1/DTD/svg11.dtd" >
<svg xmlns="http://www.w3.org/2000/svg" xmlns:xlink="http://www.w3.org/1999/xlink" version="1.1" viewBox="-10 0 1001 1000">
   <path fill="currentColor"
d="M501 200l347.999 549h-699c119.085 -183 237.075 -366 351.001 -549zM500.999 101l-450 699h900zM604.164 704.018v-297.154l-86.5332 130.345zM400.894 700.452l72.6289 -161.968l-71.7266 -123.655c-0.513672 53.2852 -2.06738 228.642 -0.902344 285.623z
M619.997 399.313c0 0 -3.33008 319.2 0 319.2h-9.1543h-7.49121h-24.9668l-72.4053 -145.438v145.438h-14.9805v-147.244l-65.7471 147.244h-23.3027h-9.15527h-6.65625v-319.2h233.859zM569.621 411.34h-63.6416v96.6211zM490.999 413h-59.542l59.542 94.5908v-94.5908z
" />
</svg>
