<?xml version="1.0" standalone="no"?>
<!DOCTYPE svg PUBLIC "-//W3C//DTD SVG 1.1//EN" "http://www.w3.org/Graphics/SVG/1.1/DTD/svg11.dtd" >
<svg xmlns="http://www.w3.org/2000/svg" xmlns:xlink="http://www.w3.org/1999/xlink" version="1.1" viewBox="-10 0 735 1000">
   <path fill="currentColor"
d="M137 288h450v58l-1 53h-60l1 -53h-330l-1 53h-60l1 -53v-10v-48zM124 260v480h480v-480h-480zM64 198l600 2v600h-600v-602zM489.337 711.858v-324.663l-110.839 142.41zM228.971 707.963l93.0293 -176.963l-91.873 -135.102
c-0.657227 58.2168 -2.64746 249.807 -1.15625 312.064zM509.616 378.945c0 0 -4.26465 348.75 0 348.75h-11.7256h-9.59473h-31.9795l-92.7422 -158.901v158.901h-19.1885v-160.874l-84.2139 160.874h-29.8477h-11.7266h-8.52734v-348.75h299.546zM445.092 392.086
h-81.5176v105.565zM344.386 393.899h-76.2656l76.2656 103.348v-103.348z" />
</svg>
