<?xml version="1.0" standalone="no"?>
<!DOCTYPE svg PUBLIC "-//W3C//DTD SVG 1.1//EN" "http://www.w3.org/Graphics/SVG/1.1/DTD/svg11.dtd" >
<svg xmlns="http://www.w3.org/2000/svg" xmlns:xlink="http://www.w3.org/1999/xlink" version="1.1" viewBox="-10 0 1018 1000">
   <path fill="currentColor"
d="M501 200l348 549h-699zM501 101l-450 699h900zM599.407 715.425l6.81152 -306.962l-90.6885 149.046zM386.376 711.349l82.9277 -152.38l-75.1699 -141.397c-0.538086 60.9307 -8.97852 228.619 -7.75781 293.777zM622.812 399.828
c0 0 -10.3008 332.172 -6.81152 332.172h-9.59473h-7.84961h-26.166l-69.0703 -133.476l-6.81152 133.476h-15.6992l6.81152 -135.541l-75.7158 135.541h-24.4219h-9.59375h-6.97656l6.81152 -332.172h6.97656h9.59375h20.9336l72.3926 123.814v-123.814h15.6992v124.237
l75.8818 -124.237h32.2715h11.3389z" />
</svg>
