<?xml version="1.0" standalone="no"?>
<!DOCTYPE svg PUBLIC "-//W3C//DTD SVG 1.1//EN" "http://www.w3.org/Graphics/SVG/1.1/DTD/svg11.dtd" >
<svg xmlns="http://www.w3.org/2000/svg" xmlns:xlink="http://www.w3.org/1999/xlink" version="1.1" viewBox="-10 0 753 1000">
   <path fill="currentColor"
d="M195.449 329.26v350.399h339.601v-350.399h-339.601zM150 284l424.5 1.45996l3 438h-424.5zM124 260v480h480v-480h-480zM64 198l600 2v600h-600v-602zM492.405 642.259v-276.667l-107.632 121.356zM239.576 638.939l90.3359 -150.803l-89.2129 -115.128
c-0.638672 49.6113 -2.57227 212.877 -1.12305 265.931zM512.097 358.562c0 0 -4.13965 297.192 0 297.192h-11.3848h-9.31836h-31.0537l-90.0566 -135.408v135.408h-18.6328v-137.091l-81.7754 137.091h-28.9854h-11.3867h-8.28027v-297.192h290.874zM449.439 369.76
h-79.1562v89.958zM351.65 371.306h-74.0586l74.0586 88.0684v-88.0684z" />
</svg>
