<?xml version="1.0" standalone="no"?>
<!DOCTYPE svg PUBLIC "-//W3C//DTD SVG 1.1//EN" "http://www.w3.org/Graphics/SVG/1.1/DTD/svg11.dtd" >
<svg xmlns="http://www.w3.org/2000/svg" xmlns:xlink="http://www.w3.org/1999/xlink" version="1.1" viewBox="-10 0 993 1000">
   <path fill="currentColor"
d="M328.304 549.11c0 -106.144 77.6162 -192.629 172.872 -192.629s172.872 86.4854 172.872 192.629c0 106.143 -77.6162 192.628 -172.872 192.628s-172.872 -86.4854 -172.872 -192.628zM350.647 547.8c0 90.417 67.0322 163.8 149.353 163.8
c82.3193 0 149.352 -73.3828 149.352 -163.8s-67.0322 -163.8 -149.352 -163.8c-82.3203 0 -149.353 73.3828 -149.353 163.8zM501 200l348 549h-699zM501 101l-450 699h900zM414.011 425.925h7.4834l20.5059 0.0751953l53 92l70.7168 -92.0752l32.2832 0.0751953l-87 110
l81.249 140.098h-26.5322l-69.7168 -122.098l-55.457 122.098h-19.0488h-7.4834h-5.44238v-250.173h5.44238zM424.555 659.586l55.4453 -124.586l-54.707 -99.2705z" />
</svg>
