<?xml version="1.0" standalone="no"?>
<!DOCTYPE svg PUBLIC "-//W3C//DTD SVG 1.1//EN" "http://www.w3.org/Graphics/SVG/1.1/DTD/svg11.dtd" >
<svg xmlns="http://www.w3.org/2000/svg" xmlns:xlink="http://www.w3.org/1999/xlink" version="1.1" viewBox="-10 0 989 1000">
   <path fill="currentColor"
d="M340 462h314.975v33.165v75.4795h-41.998v-75.4795h-230.981v75.4795h-41.9951v-75.4795v-5.7168v-27.4482zM501 200l348 549h-699zM501 101l-450 699h900zM601.04 506.12c0 0 -1.83984 238.88 1.12012 238.88h-8.13965h-6.66016h-22.2002l-72.9004 -113.42
l-63.2598 113.42h-20.7197h-8.13965h-5.9209l-1.12012 -238.88h5.9209h8.13965h17.7598l68.0801 95.8799l71.04 -95.8799h27.3799h9.62012zM410.87 730.21l59.9297 -112.91l-60.248 -99.1465zM583.29 734.29l-1.12012 -221.268l-72.1494 103.257z" />
</svg>
