<?xml version="1.0" standalone="no"?>
<!DOCTYPE svg PUBLIC "-//W3C//DTD SVG 1.1//EN" "http://www.w3.org/Graphics/SVG/1.1/DTD/svg11.dtd" >
<svg xmlns="http://www.w3.org/2000/svg" xmlns:xlink="http://www.w3.org/1999/xlink" version="1.1" viewBox="-10 0 831 1000">
   <path fill="currentColor"
d="M202.007 505.598c0 -93.8955 73.1807 -170.403 162.993 -170.403c89.8135 0 162.994 76.5078 162.994 170.403c0 93.8945 -73.1807 170.402 -162.994 170.402c-89.8125 0 -162.993 -76.5078 -162.993 -170.402zM223.074 504.438
c0 79.9844 63.2012 144.899 140.817 144.899s140.817 -64.915 140.817 -144.899c0 -79.9854 -63.2012 -144.9 -140.817 -144.9s-140.817 64.915 -140.817 144.9zM195.449 329.26v350.399h339.601v-350.399h-339.601zM150 284l424.5 1.45996l3 438h-424.5zM124 260v480h480
v-480h-480zM64 198l600 2v600h-600v-602zM451.227 596.145v-179.607l-75.1123 78.7832zM274.783 593.989l63.043 -97.8975l-62.2598 -74.7393c-0.445312 32.2061 -1.79395 138.195 -0.783203 172.637zM464.969 411.974c0 0 -2.88867 192.933 0 192.933h-7.94531h-6.50293
h-21.6719l-62.8486 -87.9062v87.9062h-13.0029v-88.998l-57.0693 88.998h-20.2275h-7.94629h-5.7793v-192.933h202.994zM421.242 419.243h-55.2422v58.3994zM352.997 420.246h-51.6836l51.6836 57.1729v-57.1729z" />
</svg>
