<?xml version="1.0" standalone="no"?>
<!DOCTYPE svg PUBLIC "-//W3C//DTD SVG 1.1//EN" "http://www.w3.org/Graphics/SVG/1.1/DTD/svg11.dtd" >
<svg xmlns="http://www.w3.org/2000/svg" xmlns:xlink="http://www.w3.org/1999/xlink" version="1.1" viewBox="-10 0 817 1000">
   <path fill="currentColor"
d="M221.018 348.214h299.98v33.7861v76.8896h-39.998v-76.8896h-219.986v76.8896h-39.9961v-76.8896v-5.82617v-27.96zM195.449 329.26v350.399h339.601v-350.399h-339.601zM150 284l424.5 1.45996l3 438h-424.5zM124 260v480h480v-480h-480zM64 198l600 2v600h-600v-602z
M293 413h7.04004h15.3604l58.8799 82.7197l61.4395 -82.7197h23.6807l-70.4004 95.04l68 154.96h-24.96l-58.4004 -141.76l-59.3594 141.76h-17.9199h-7.04004h-5.12012l3.67969 -250h5.12012zM302.92 618.48l52.1602 -109.561l-51.4668 -87.2979z" />
</svg>
