<?xml version="1.0" standalone="no"?>
<!DOCTYPE svg PUBLIC "-//W3C//DTD SVG 1.1//EN" "http://www.w3.org/Graphics/SVG/1.1/DTD/svg11.dtd" >
<svg xmlns="http://www.w3.org/2000/svg" xmlns:xlink="http://www.w3.org/1999/xlink" version="1.1" viewBox="-10 0 698 1000">
   <path fill="currentColor"
d="M20 110h630v58v132h-84v-132h-462v132h-84v-132v-10v-48zM518.153 777.246v-465.419l-159.612 204.151zM143.219 771.663l133.964 -253.685l-132.3 -193.675c-0.946289 83.457 -3.81348 358.111 -1.66406 447.359zM547.355 300c0 0 -6.13965 499.95 0 499.95h-16.8857
h-13.8154h-46.0527l-133.551 -227.791v227.791h-27.6309v-230.62l-121.271 230.62h-42.9824h-16.8857h-12.2803v-499.95h431.355zM454.438 318.838h-117.388v151.333zM309.42 321.438h-109.826l109.826 148.153v-148.153z" />
</svg>
