<?xml version="1.0" standalone="no"?>
<!DOCTYPE svg PUBLIC "-//W3C//DTD SVG 1.1//EN" "http://www.w3.org/Graphics/SVG/1.1/DTD/svg11.dtd" >
<svg xmlns="http://www.w3.org/2000/svg" xmlns:xlink="http://www.w3.org/1999/xlink" version="1.1" viewBox="-10 0 784 1000">
   <path fill="currentColor"
d="M137 288h450v58v54h-60v-54h-330v54h-60v-54v-10v-48zM124 260v480h480v-480h-480zM64 198l600 2v600h-600v-602zM514.21 383.256c0 0 -4.33203 342 0 342h-11.9131h-9.74707h-32.4902l-105.051 -173.735l-94.2207 173.735h-30.3242h-11.9141h-8.66309v-342h8.66309
h11.9141h25.9922l99.6367 128.592l103.967 -128.592h40.0713h14.0791zM234.255 705.42l89.3477 -173.052l-88.1738 -132.973zM486.593 710.892v-318.379l-105.593 138.487z" />
</svg>
