<?xml version="1.0" standalone="no"?>
<!DOCTYPE svg PUBLIC "-//W3C//DTD SVG 1.1//EN" "http://www.w3.org/Graphics/SVG/1.1/DTD/svg11.dtd" >
<svg xmlns="http://www.w3.org/2000/svg" xmlns:xlink="http://www.w3.org/1999/xlink" version="1.1" viewBox="-10 0 1020 1000">
   <path fill="currentColor"
d="M340 462h314.975v33.165v75.4795h-41.998v-75.4795h-230.981v75.4795h-41.9951v-75.4795v-5.7168v-27.4482zM501 200l348 549h-699zM501 101l-450 699h900zM485.367 526.741h-50.21l50.21 64.5615v-64.5615zM551.667 525.607h-53.667v65.9482zM594.146 517.399
c0 0 -2.80664 217.869 0 217.869h-197.205v-217.869h5.61328h191.592zM409.384 722.94l61.2451 -110.551l-60.4844 -84.4004c-0.432617 36.3701 -1.74219 156.059 -0.760742 194.951zM580.795 725.374v-202.821l-72.9697 88.9658zM552.432 724.499l-54.4316 -88.499v87.7637
zM485.367 723.592v-88.8242l-48.6396 88.168z" />
</svg>
