<?xml version="1.0" standalone="no"?>
<!DOCTYPE svg PUBLIC "-//W3C//DTD SVG 1.1//EN" "http://www.w3.org/Graphics/SVG/1.1/DTD/svg11.dtd" >
<svg xmlns="http://www.w3.org/2000/svg" xmlns:xlink="http://www.w3.org/1999/xlink" version="1.1" viewBox="-10 0 783 1000">
   <path fill="currentColor"
d="M195.449 329.26v350.399h339.601v-350.399h-339.601zM150 284l424.5 1.45996l3 438h-424.5zM124 260v480h480v-480h-480zM64 198l600 2v600h-600v-602zM488.336 652.116v-283.934l-106.056 124.545zM239.206 648.71l89.0146 -154.763l-87.9092 -118.153
c-0.628906 50.9141 -2.5332 218.469 -1.10547 272.916zM507.74 360.967c0 0 -4.08008 305 0 305h-11.2197h-9.18066h-30.5996l-88.7402 -138.967v138.967h-18.3594v-140.692l-80.5801 140.692h-28.5605h-11.2197h-8.16016v-305h8.16016h11.2197h24.4805l84.6602 103.462
v-103.462h18.3594v103.814l88.7402 -103.814h37.7402h13.2598z" />
</svg>
