<?xml version="1.0" standalone="no"?>
<!DOCTYPE svg PUBLIC "-//W3C//DTD SVG 1.1//EN" "http://www.w3.org/Graphics/SVG/1.1/DTD/svg11.dtd" >
<svg xmlns="http://www.w3.org/2000/svg" xmlns:xlink="http://www.w3.org/1999/xlink" version="1.1" viewBox="-10 0 775 1000">
   <path fill="currentColor"
d="M221.018 348.214h299.98v33.7861v76.8896h-39.998v-76.8896h-219.986v76.8896h-39.9961v-76.8896v-5.82617v-27.96zM195.449 329.26v350.399h339.601v-350.399h-339.601zM150 284l424.5 1.45996l3 438h-424.5zM124 260v480h480v-480h-480zM64 198l600 2v600h-600v-602z
M360.322 418.902h-50.3916l50.3916 83.376v-83.376zM426.861 417.438h-53.8613v85.166zM469.495 406.837c0 0 -5.3125 261.163 -2.49512 261.163h-197.92l2.49512 -261.163h5.63477h192.285zM281.569 652.082l63.9619 -122.573l-60.7031 -108.995
c-0.43457 46.9678 -4.24512 181.341 -3.25879 231.568zM453.601 655.224l2.49512 -241.73l-73.2354 114.891zM425.134 654.093l-52.1338 -94.0928l-2.49512 93.1436zM357.827 652.923l2.49512 -94.5156l-51.3105 93.6689z" />
</svg>
