<?xml version="1.0" standalone="no"?>
<!DOCTYPE svg PUBLIC "-//W3C//DTD SVG 1.1//EN" "http://www.w3.org/Graphics/SVG/1.1/DTD/svg11.dtd" >
<svg xmlns="http://www.w3.org/2000/svg" xmlns:xlink="http://www.w3.org/1999/xlink" version="1.1" viewBox="-10 0 725 1000">
   <path fill="currentColor"
d="M124 260v480h480v-480h-480zM64 198l600 2v600h-600v-602zM518 661l-2 -320l-119.1 134.36zM224 647l104 -170l-98 -132zM556.801 298.24c0 0 -5.2002 410 0 410h-14.3008h-11.6992h-39l-113.101 -186.808v186.808h-23.3994v-189.128l-102.7 189.128h-36.4004h-14.2998
h-10.4004v-410h10.4004h14.2998c18.6973 0 175.871 4.7793 263.9 1.14258c23.4795 -0.969727 37.2734 -1.91113 59.7998 -1.14258h16.9004zM478 335h-99.4111l0.111328 102.794zM355.189 337.133h-93.0078l93.1191 100.187z" />
</svg>
