<?xml version="1.0" standalone="no"?>
<!DOCTYPE svg PUBLIC "-//W3C//DTD SVG 1.1//EN" "http://www.w3.org/Graphics/SVG/1.1/DTD/svg11.dtd" >
<svg xmlns="http://www.w3.org/2000/svg" xmlns:xlink="http://www.w3.org/1999/xlink" version="1.1" viewBox="-10 0 788 1000">
   <path fill="currentColor"
d="M17.2559 453c0 -190.512 155.232 -345.744 345.744 -345.744s345.744 155.232 345.744 345.744s-155.232 345.744 -345.744 345.744s-345.744 -155.232 -345.744 -345.744zM61.9443 450.648c0 162.288 134.063 294 298.704 294c164.64 0 298.703 -131.712 298.703 -294
s-134.063 -294 -298.703 -294c-164.641 0 -298.704 131.712 -298.704 294zM529 637l-4 -344l-154 140zM195 609l136 -168l-138 -144c-0.918945 64.1357 -0.0849609 243.414 2 312zM572.261 271.673c0 0 -5.95605 384.2 0 384.2h-16.3818h-13.4023h-44.6758
l-129.561 -175.053v175.053h-26.8047v-177.227l-117.648 177.227h-41.6973h-16.3809h-11.9131v-384.2h11.9131h16.3809c21.418 0 201.467 4.47852 302.308 1.07031c26.8975 -0.908203 42.6982 -1.79004 68.5029 -1.07031h19.3604zM483 297h-113.879l-0.880859 105.445z
M342.316 298.999h-106.545l105.664 103.001z" />
</svg>
