<?xml version="1.0" standalone="no"?>
<!DOCTYPE svg PUBLIC "-//W3C//DTD SVG 1.1//EN" "http://www.w3.org/Graphics/SVG/1.1/DTD/svg11.dtd" >
<svg xmlns="http://www.w3.org/2000/svg" xmlns:xlink="http://www.w3.org/1999/xlink" version="1.1" viewBox="-10 0 735 1000">
   <path fill="currentColor"
d="M137 288h450v58l-3 53h-60l3 -53h-330l-3 53h-60l3 -53v-10v-48zM124 260v480h480v-480h-480zM64 198l600 2v600h-600v-602zM493.9 702.066v-309.209l-113.792 135.632zM226.598 698.357l95.5078 -168.54l-94.3203 -128.671
c-0.675781 55.4463 -2.71875 237.917 -1.1875 297.211zM514.72 385c0 0 -4.37695 332.149 0 332.149h-12.0381h-9.84961h-32.832l-95.2129 -151.337v151.337h-19.6992v-153.216l-86.458 153.216h-30.6426h-12.0381h-8.75586v-332.149h8.75586h12.0381h26.2646
l90.8359 112.671v-112.671h19.6992v113.056l95.2129 -113.056h40.4922h14.2275z" />
</svg>
