<?xml version="1.0" standalone="no"?>
<!DOCTYPE svg PUBLIC "-//W3C//DTD SVG 1.1//EN" "http://www.w3.org/Graphics/SVG/1.1/DTD/svg11.dtd" >
<svg xmlns="http://www.w3.org/2000/svg" xmlns:xlink="http://www.w3.org/1999/xlink" version="1.1" viewBox="-10 0 747 1000">
   <path fill="currentColor"
d="M137 288h450v58v132h-60v-132h-330v132h-60v-132v-10v-48zM124 260v480h480v-480h-480zM64 198l600 2v600h-600v-602zM346.597 390.81h-79.1172l79.1172 101.612v-101.612zM451.064 389.026h-84.5635v103.792zM518 376.105c0 0 -4.42383 342.895 0 342.895h-310.738
v-342.895h8.8457h301.893zM226.868 699.6l96.5049 -173.991l-95.3057 -132.834c-0.681641 57.2393 -2.74805 245.613 -1.19922 306.825zM496.962 703.429v-319.212l-114.979 140.02zM452.27 702.05l-85.7686 -139.282v138.127zM346.597 700.625v-139.797l-76.6426 138.765z
" />
</svg>
