<?xml version="1.0" standalone="no"?>
<!DOCTYPE svg PUBLIC "-//W3C//DTD SVG 1.1//EN" "http://www.w3.org/Graphics/SVG/1.1/DTD/svg11.dtd" >
<svg xmlns="http://www.w3.org/2000/svg" xmlns:xlink="http://www.w3.org/1999/xlink" version="1.1" viewBox="-10 0 1032 1000">
   <path fill="currentColor"
d="M328.304 549.11c0 -106.144 77.6162 -192.629 172.872 -192.629s172.872 86.4854 172.872 192.629c0 106.143 -77.6162 192.628 -172.872 192.628s-172.872 -86.4854 -172.872 -192.628zM350.647 547.8c0 90.417 67.0322 163.8 149.353 163.8
c82.3193 0 149.352 -73.3828 149.352 -163.8s-67.0322 -163.8 -149.352 -163.8c-82.3203 0 -149.353 73.3828 -149.353 163.8zM501 200l348 549h-699zM501 101l-450 699h900zM397.642 430.359h27.5508l72.8076 104.641l75.1865 -104.641h29.126l-85.4189 119.24
l85.6523 114.4h-30.7012l-73.8447 -100l-71 100h-30.7002l78.8721 -113.439z" />
</svg>
