<?xml version="1.0" standalone="no"?>
<!DOCTYPE svg PUBLIC "-//W3C//DTD SVG 1.1//EN" "http://www.w3.org/Graphics/SVG/1.1/DTD/svg11.dtd" >
<svg xmlns="http://www.w3.org/2000/svg" xmlns:xlink="http://www.w3.org/1999/xlink" version="1.1" viewBox="-10 0 688 1000">
   <path fill="currentColor"
d="M20 110h630v58v132h-84v-132h-462v132h-84v-132v-10v-48zM312.76 320.617h-111.609l111.609 148.034v-148.034zM460.134 318.02h-119.294v151.212zM554.56 299.196c0 0 -6.79883 500.804 -0.55957 500.804h-438.359l0.55957 -500.804h438.359zM143.86 770.482
l136.14 -253.482l-134.449 -193.52c-0.960938 83.3906 -3.87402 357.824 -1.69043 447.002zM524.884 776.061v-465.047l-162.204 203.988zM461.835 774.053l-120.995 -202.916v201.231zM312.76 771.977v-203.666l-108.118 202.161z" />
</svg>
